<svg width="40" height="41" viewBox="0 0 40 41" fill="none" xmlns="http://www.w3.org/2000/svg">
<rect y="0.5" width="40" height="40" rx="20" fill="#292929"/>
<g clip-path="url(#clip0_1_556)">
<path d="M24.9602 16.4572V22.3283C25.6844 22.3619 26.4067 22.4027 27.127 22.4507V23.6955C25.9846 23.6193 24.8411 23.5615 23.6969 23.5221V16.4572H24.9602ZM34.9996 16.4579L33.3545 20.2718L34.9992 24.5161L34.9973 24.5169C34.5178 24.4487 34.0378 24.3838 33.5574 24.3222L32.6338 21.9401L31.7014 24.1011C31.2591 24.0522 30.8165 24.0061 30.3736 23.9628L31.9773 20.2463L30.5086 16.4579H31.8753L32.6976 18.578L33.612 16.4579H34.9996ZM19.3609 23.4604V16.4578H22.8876V17.7138H20.6243V19.3415H22.3368V20.5863H20.6243V23.4602L19.3609 23.4604ZM14.6435 17.7138V16.4577H18.551V17.7138H17.2289V23.4945C16.8072 23.5056 16.386 23.5186 15.9656 23.5345V17.7138H14.6435ZM10.3246 23.8964V16.458H13.8337V17.7139H11.5878V19.4152C12.1037 19.4086 12.8374 19.4011 13.2938 19.4022V20.6471C12.7225 20.64 12.0775 20.6549 11.5878 20.6598V22.5443C12.3358 22.4854 13.0845 22.4342 13.8337 22.3908V23.6357C12.6626 23.7033 11.4927 23.7902 10.3246 23.8965V23.8964ZM7.8463 21.0188L7.84624 16.4577H9.10961V24.0138C8.64778 24.0612 8.18678 24.1118 7.72666 24.1652L6.26367 19.9624V24.3452C5.84223 24.4 5.42112 24.4574 5.00037 24.5172V16.4579H6.20098L7.8463 21.0188ZM28.1692 23.7706V16.4579H29.4326V23.8749C29.012 23.8374 28.591 23.8028 28.1692 23.7706Z" fill="#DB202C"/>
</g>
<defs>
<clipPath id="clip0_1_556">
<rect width="30" height="8.08571" fill="white" transform="translate(5 16.4572)"/>
</clipPath>
</defs>
</svg>
