<svg width="66" height="66" viewBox="0 0 66 66" fill="none" xmlns="http://www.w3.org/2000/svg">
<g clip-path="url(#clip0_1666_22429)">
<rect width="66" height="66" rx="33" fill="#E0E0E0"/>
<g clip-path="url(#clip1_1666_22429)">
<rect width="66" height="66" fill="#DEDAF9"/>
<path d="M27.869 29.4539C27.869 29.9098 27.4991 30.2797 27.0433 30.2797C26.9826 30.2797 26.9228 30.272 26.8652 30.2597C26.6219 30.206 26.4201 30.0456 26.3088 29.8292C26.2513 29.7164 26.2183 29.589 26.2183 29.4539C26.2183 28.998 26.5882 28.6289 27.0433 28.6289C27.4984 28.6289 27.869 28.998 27.869 29.4539Z" fill="#FFAC00"/>
<path d="M38.7659 46.1152L38.6692 47.1897L38.386 46.9379C38.541 46.6655 38.6653 46.3877 38.7659 46.1152Z" fill="#DD920B"/>
<path d="M45.6046 16.5641C45.6046 16.04 45.3244 15.6463 45.0973 15.4122C44.9415 15.2526 44.8103 15.1674 44.8103 15.1674C44.8103 15.1674 44.9599 14.4567 44.9599 13.4414C44.9599 12.0024 44.6591 9.9526 43.2025 8.45072C43.1311 8.37704 43.0566 8.3049 42.9791 8.23353C41.2186 6.61576 39.2709 5.95193 37.7697 6.75544H37.769C37.1527 7.08544 36.6117 7.66255 36.1896 8.52286H36.1888C36.1811 8.51135 36.0913 8.38855 35.9379 8.22893C35.931 8.22202 35.9233 8.21435 35.9156 8.20667C35.9079 8.19823 35.9003 8.19055 35.8926 8.18288C35.3208 7.61037 34.0116 6.69021 32.7514 8.58042H32.7507C32.7507 8.58042 32.7491 8.57811 32.7484 8.57658C32.7468 8.57581 32.7461 8.57428 32.7438 8.57197C32.7422 8.57044 32.7407 8.56814 32.7384 8.56583C32.7361 8.56353 32.7338 8.56123 32.7307 8.55816C32.7284 8.55509 32.7253 8.55202 32.7223 8.54895C32.5327 8.35248 31.4192 7.30339 29.2557 7.25121C26.2804 7.17907 24.9757 8.74465 24.9757 10.4269C24.9757 11.377 25.3917 12.3639 26.1568 13.1145C26.1821 13.139 26.2082 13.1643 26.2343 13.1881C26.2597 13.2127 26.2857 13.2365 26.3126 13.2603C26.2336 13.2426 23.6941 12.6663 22.5529 13.8942C22.2076 14.2656 21.8269 15.096 21.8269 15.9356C21.8269 16.4666 21.9789 17.0016 22.3887 17.426C22.635 17.6807 22.9735 17.8956 23.427 18.0468C22.9512 18.2064 22.5882 18.5288 22.5882 19.1396C22.5882 19.2256 22.5951 19.3169 22.6105 19.4144C22.6596 19.7344 22.7801 19.9693 22.9474 20.1373C23.8299 21.0237 26.0194 20.0644 26.0194 20.0644C26.123 21.65 26.2389 23.5202 26.2497 23.7036C26.4392 23.6622 26.6357 23.6399 26.836 23.6399C27.4822 23.6399 28.0793 23.9477 28.5612 24.3444C28.836 24.4112 29.1061 24.4964 29.3732 24.613C29.4952 24.666 29.6187 24.7259 29.7101 24.8233C29.7515 24.8671 29.8336 24.9331 29.8336 24.8394V24.8287L29.7461 23.2386C29.7431 23.1833 29.7415 23.128 29.7415 23.0728C29.7415 22.501 29.9042 21.9385 30.2112 21.4535L30.479 21.0314C30.5965 20.8464 30.6556 20.6354 30.6556 20.4243C30.6556 20.231 30.6057 20.0368 30.5059 19.8626L30.1636 19.2624C30.0608 19.0829 30.0132 18.8895 30.0132 18.7007C30.0132 18.2133 30.3294 17.7506 30.842 17.6071C33.7936 16.7828 40.6822 15.2656 43.7251 18.0276L44.8294 20.9999L44.8317 21.0053C44.8317 21.0053 45.1947 20.0092 45.1947 18.9179C45.1947 18.5687 45.1571 18.2087 45.0589 17.8688C45.4626 17.3753 45.6046 16.9371 45.6046 16.5641ZM45.6046 16.5641C45.6046 16.04 45.3244 15.6463 45.0973 15.4122C44.9415 15.2526 44.8103 15.1674 44.8103 15.1674C44.8103 15.1674 44.9599 14.4567 44.9599 13.4414C44.9599 12.0024 44.6591 9.9526 43.2025 8.45072C43.1311 8.37704 43.0566 8.3049 42.9791 8.23353C41.2186 6.61576 39.2709 5.95193 37.7697 6.75544H37.769C37.1527 7.08544 36.6117 7.66255 36.1896 8.52286H36.1888C36.1811 8.51135 36.0913 8.38855 35.9379 8.22893C35.931 8.22202 35.9233 8.21435 35.9156 8.20667C35.9079 8.19823 35.9003 8.19055 35.8926 8.18288C35.3208 7.61037 34.0116 6.69021 32.7514 8.58042H32.7507C32.7507 8.58042 32.7491 8.57811 32.7484 8.57658C32.7468 8.57581 32.7461 8.57428 32.7438 8.57197C32.7422 8.57044 32.7407 8.56814 32.7384 8.56583C32.7361 8.56353 32.7338 8.56123 32.7307 8.55816C32.7284 8.55509 32.7253 8.55202 32.7223 8.54895C32.5327 8.35248 31.4192 7.30339 29.2557 7.25121C26.2804 7.17907 24.9757 8.74465 24.9757 10.4269C24.9757 11.377 25.3917 12.3639 26.1568 13.1145C26.1821 13.139 26.2082 13.1643 26.2343 13.1881C26.2597 13.2127 26.2857 13.2365 26.3126 13.2603C26.2336 13.2426 23.6941 12.6663 22.5529 13.8942C22.2076 14.2656 21.8269 15.096 21.8269 15.9356C21.8269 16.4666 21.9789 17.0016 22.3887 17.426C22.635 17.6807 22.9735 17.8956 23.427 18.0468C22.9512 18.2064 22.5882 18.5288 22.5882 19.1396C22.5882 19.2256 22.5951 19.3169 22.6105 19.4144C22.6596 19.7344 22.7801 19.9693 22.9474 20.1373C23.8299 21.0237 26.0194 20.0644 26.0194 20.0644C26.123 21.65 26.2389 23.5202 26.2497 23.7036C26.4392 23.6622 26.6357 23.6399 26.836 23.6399C27.4822 23.6399 28.0793 23.9477 28.5612 24.3444C28.836 24.4112 29.1061 24.4964 29.3732 24.613C29.4952 24.666 29.6187 24.7259 29.7101 24.8233C29.7515 24.8671 29.8336 24.9331 29.8336 24.8394V24.8287L29.7461 23.2386C29.7431 23.1833 29.7415 23.128 29.7415 23.0728C29.7415 22.501 29.9042 21.9385 30.2112 21.4535L30.479 21.0314C30.5965 20.8464 30.6556 20.6354 30.6556 20.4243C30.6556 20.231 30.6057 20.0368 30.5059 19.8626L30.1636 19.2624C30.0608 19.0829 30.0132 18.8895 30.0132 18.7007C30.0132 18.2133 30.3294 17.7506 30.842 17.6071C33.7936 16.7828 40.6822 15.2656 43.7251 18.0276L44.8294 20.9999L44.8317 21.0053C44.8317 21.0053 45.1947 20.0092 45.1947 18.9179C45.1947 18.5687 45.1571 18.2087 45.0589 17.8688C45.4626 17.3753 45.6046 16.9371 45.6046 16.5641Z" fill="#541B0A"/>
<path d="M31.2064 58.4756C31.013 59.0926 30.8097 59.7288 30.386 60.2177C30.2609 60.3628 30.119 60.4886 29.9678 60.6045L29.9294 57.9499L29.8979 55.7305C29.9409 55.7381 29.9839 55.7451 30.0269 55.7527C30.1458 55.7758 30.2663 55.7995 30.3845 55.831C30.6163 55.8924 30.8388 55.9807 31.0192 56.1357C31.6493 56.6783 31.4551 57.6821 31.2064 58.4756Z" fill="#009F62"/>
<path d="M35.6278 60.1367L35.5334 66.7145C35.2618 66.3891 35.0085 66.0445 34.6954 65.7605C34.1666 65.2809 33.4774 64.9808 33.0277 64.4267C32.2334 63.4505 32.4698 61.8865 33.3639 61.0009C34.1029 60.2695 34.8374 60.1383 35.6278 60.1367Z" fill="#009F62"/>
<path d="M12.9031 75.8419H-2.65527L-2.64837 62.8675L5.38982 51.0689L7.23398 48.3613L7.91547 49.4074L10.6008 53.5308C11.636 55.0649 12.2193 56.8584 12.2861 58.708L12.9031 75.8419Z" fill="#FF6060"/>
<path d="M29.9678 60.6044L29.898 55.7304L29.8719 53.9077C29.8573 53.6123 29.6386 53.3674 29.347 53.3199L29.0538 53.2715L27.3785 52.9975L26.3992 52.8371C26.0792 52.785 25.7691 52.6982 25.4752 52.5793C24.133 52.0428 23.1184 50.8664 22.8099 49.4113L22.4691 46.9378L22.0762 44.0898L11.1977 45.6293C9.69277 45.868 8.35358 46.7168 7.49558 47.9762L7.23389 48.3607L7.91538 49.4067L10.6007 53.5301C11.6359 55.0643 12.2192 56.8578 12.286 58.7073L12.903 75.8412H30.1858L29.9678 60.6044ZM22.5382 55.725C22.4039 57.6766 20.7125 59.1494 18.7616 59.015C16.81 58.8807 15.3373 57.1901 15.4716 55.2385C15.6059 53.2869 17.2966 51.8141 19.2482 51.9484C21.1998 52.0828 22.6725 53.7742 22.5382 55.725Z" fill="#735FFF"/>
<path d="M41.6737 43.1018L41.039 50.1569C40.9715 50.9074 40.7228 51.6303 40.3161 52.2643L40.1135 52.5789C39.8188 52.6979 39.5095 52.7846 39.1895 52.8368L38.2095 52.9972L39.0145 51.7462C39.422 51.1131 39.6707 50.3902 39.7382 49.6404L40.3875 42.418L41.6737 43.1018Z" fill="white"/>
<path d="M38.6693 47.1892L38.6155 47.7809L38.1274 47.3458C38.2218 47.2115 38.3086 47.0749 38.3861 46.9375L38.6693 47.1892Z" fill="#FFAC00"/>
<path d="M38.6153 47.7808L38.4541 49.5736C38.405 50.1208 38.2239 50.6488 37.9261 51.11L37.8816 51.1783C37.4012 51.4331 36.8625 51.6518 36.2562 51.8222L35.4949 49.2175C36.7519 48.8192 37.5815 48.1208 38.1272 47.3457L38.6153 47.7808Z" fill="#DD920B"/>
<path d="M37.8816 51.1787L36.5348 53.2716L36.2416 53.3199C35.95 53.3675 35.7312 53.6123 35.7167 53.9078L35.6276 60.1379C34.8372 60.1394 34.1027 60.2706 33.3637 61.002C32.4696 61.8876 32.2332 63.4517 33.0275 64.4279C33.4773 64.9819 34.1664 65.282 34.6952 65.7617C35.0083 66.0456 35.2616 66.3902 35.5332 66.7156L35.4028 75.8412H30.1857L29.9678 60.6045C30.1189 60.4886 30.2609 60.3627 30.386 60.2177C30.8096 59.7288 31.013 59.0926 31.2064 58.4756C31.4551 57.682 31.6492 56.6782 31.0192 56.1356C30.8388 55.9806 30.6162 55.8924 30.3845 55.831C30.2663 55.7995 30.1458 55.7757 30.0268 55.7527C29.9839 55.745 29.9409 55.7381 29.8979 55.7304L29.8718 53.9078C29.8572 53.6123 29.6385 53.3675 29.3469 53.3199L29.0537 53.2716L27.6624 51.1104C27.647 51.0874 27.634 51.0629 27.6194 51.0391C28.1466 51.333 28.7475 51.5847 29.4336 51.7804C29.7943 51.884 30.1788 51.9715 30.5886 52.0413C30.7429 52.0682 30.9017 52.092 31.0637 52.1127C31.6554 52.1902 32.2962 52.2317 32.9892 52.2317C34.0459 52.2317 34.9753 52.1273 35.7934 51.94C35.9523 51.904 36.1058 51.8648 36.2562 51.8226C36.8625 51.6523 37.4012 51.4335 37.8816 51.1787Z" fill="#FFAC00"/>
<path d="M27.9456 47.6518L27.0354 48.4791L26.783 45.668C27.0132 46.3172 27.3754 47.0217 27.9456 47.6518Z" fill="#DD920B"/>
<path d="M28.281 47.9896L27.0891 49.0732L27.0354 48.4777L27.9456 47.6504C28.05 47.7663 28.1612 47.8799 28.281 47.9896Z" fill="#FFAC00"/>
<path d="M31.3239 49.4277L30.5886 52.0408C29.4014 51.839 28.4245 51.4867 27.6194 51.0385C27.3477 50.5942 27.1804 50.093 27.1344 49.5735L27.0891 49.0739L28.2809 47.9902C28.9939 48.6472 29.9747 49.1844 31.3239 49.4277Z" fill="#DD920B"/>
<g style="mix-blend-mode:multiply" opacity="0.6">
<path d="M30.4268 55.634L30.3846 55.8312L29.9295 57.9501L29.8981 55.7307L29.872 53.908C29.8574 53.6125 29.6387 53.3677 29.3471 53.3201L29.0539 53.2718L27.3786 52.9978L26.3993 52.8374C26.0793 52.7852 25.7692 52.6985 25.4753 52.5795C25.1123 52.4345 24.7731 52.2426 24.4654 52.0109L22.9988 48.0424L24.3096 47.4899L25.6081 46.9427L26.8506 46.4185L27.7047 46.0586C27.7047 46.0586 28.1775 49.255 29.4338 51.7806C29.5834 52.0815 29.7446 52.3723 29.9173 52.6478C30.4729 53.5358 30.6471 54.6102 30.4268 55.634Z" fill="#AF750E"/>
</g>
<path d="M31.7989 49.4991L31.0637 52.1123C30.9017 52.0915 30.7429 52.0677 30.5886 52.0409L31.3238 49.4277C31.4773 49.4554 31.6354 49.4792 31.7989 49.4991Z" fill="#FFAC00"/>
<path d="M35.7935 51.9385C34.9754 52.1257 34.046 52.2301 32.9892 52.2301C32.2962 52.2301 31.6554 52.1887 31.0637 52.1111L31.7989 49.498C32.1696 49.5433 32.5656 49.5671 32.9892 49.5671C33.7643 49.5671 34.4428 49.4865 35.036 49.3438L35.7935 51.9385Z" fill="#DD920B"/>
<path d="M25.4752 52.5787C25.1122 52.4337 24.773 52.2418 24.4653 52.01C23.6357 51.3853 23.0348 50.4721 22.8099 49.4107L22.0762 44.0893L22.0747 44.0785L23.915 43.1016L24.3095 47.489L24.5497 50.1567C24.6172 50.9072 24.8659 51.6301 25.2726 52.2641L25.4752 52.5787Z" fill="#735FFF"/>
<path d="M27.3785 52.9972L26.3992 52.8368C26.0792 52.7846 25.7692 52.6979 25.4752 52.5789L25.2726 52.2643C24.8659 51.6303 24.6172 50.9074 24.5497 50.1569L24.3095 47.4892L23.915 43.1018L25.2013 42.418L25.608 46.942L25.8505 49.6404C25.9181 50.3902 26.1659 51.1131 26.5742 51.7462L27.3785 52.9972Z" fill="white"/>
<path d="M29.054 53.2719L27.3786 52.9979L26.5744 51.747C26.1661 51.1138 25.9182 50.3909 25.8507 49.6411L25.6082 46.9428L25.2014 42.4187L26.4316 41.7656L26.4401 41.8608L26.7831 45.6681L26.8507 46.4186L27.0356 48.4792L27.0893 49.0747L27.1346 49.5743C27.1806 50.0939 27.348 50.595 27.6196 51.0394C27.6342 51.0632 27.6473 51.0877 27.6626 51.1108L29.054 53.2719Z" fill="#735FFF"/>
<path d="M58.4506 48.3676L57.9196 49.1826L55.0877 53.5309C54.0524 55.065 53.4692 56.8585 53.4024 58.7081L52.7854 75.842H35.4028L35.5333 66.7163L35.6277 60.1386L35.7167 53.9085C35.7313 53.613 35.95 53.3682 36.2416 53.3206L36.5348 53.2723L38.2094 52.9983L39.1894 52.8379C39.5094 52.7857 39.8187 52.699 40.1134 52.5801C41.4556 52.0436 42.4702 50.8671 42.7787 49.4121L43.299 45.6316L43.5116 44.0898L54.4676 45.6516C55.8935 45.8772 57.1744 46.6523 58.0362 47.8104L58.4506 48.3676Z" fill="#735FFF"/>
<path d="M72.3252 67.0118V75.8397H52.7854L53.4024 58.7057C53.4692 56.8562 54.0524 55.0627 55.0877 53.5286L57.9196 49.1803L58.4507 48.3652L60.5135 51.1372L72.3252 67.0118Z" fill="#FF6060"/>
<path d="M40.3875 42.4187L39.7382 49.6411C39.6707 50.3909 39.422 51.1138 39.0145 51.747L38.2095 52.9979L36.5349 53.2719L37.8818 51.1791L37.9263 51.1108C38.2241 50.6495 38.4052 50.1215 38.4543 49.5743L38.6154 47.7816L38.6692 47.1899L38.7659 46.1155L39.1504 41.837L39.1573 41.7656L40.3875 42.4187Z" fill="#735FFF"/>
<path d="M36.2564 51.8215C36.1059 51.8637 35.9525 51.9028 35.7936 51.9389L35.0361 49.3442C35.195 49.3066 35.3485 49.2636 35.4951 49.2168L36.2564 51.8215Z" fill="#FFAC00"/>
<path d="M43.5133 44.0785L43.5118 44.0885L42.7789 49.4107C42.4703 50.8658 41.4558 52.0423 40.1135 52.5787L40.3161 52.2641C40.7229 51.6301 40.9715 50.9072 41.0391 50.1567L41.6737 43.1016L43.5133 44.0785Z" fill="#735FFF"/>
<path d="M19.2482 51.948C17.2966 51.8137 15.6059 53.2864 15.4716 55.238C15.3373 57.1896 16.8101 58.8803 18.7617 59.0146C20.7125 59.1489 22.4039 57.6761 22.5382 55.7245C22.6725 53.7737 21.1998 52.0823 19.2482 51.948ZM16.5184 55.4575C16.4378 55.4513 16.3765 55.3815 16.3826 55.3009C16.388 55.2196 16.4578 55.1589 16.5391 55.1643C16.6197 55.1697 16.6811 55.2395 16.675 55.3209C16.6696 55.4014 16.5998 55.4628 16.5184 55.4575ZM19.2828 57.7537C19.2659 57.9923 19.0594 58.1727 18.8208 58.1566C18.5821 58.1397 18.4017 57.9332 18.4186 57.6946C18.4347 57.4559 18.6419 57.2755 18.8798 57.2924C19.1185 57.3085 19.2989 57.5157 19.2828 57.7537ZM21.4707 55.7982C21.3901 55.7928 21.3288 55.723 21.3349 55.6417C21.3403 55.5611 21.4101 55.4997 21.4915 55.505C21.572 55.5112 21.6334 55.581 21.6273 55.6624C21.6219 55.743 21.5521 55.8044 21.4707 55.7982Z" fill="#DAD7FF"/>
<path d="M16.6751 55.321C16.6698 55.4015 16.5999 55.4629 16.5186 55.4576C16.438 55.4514 16.3766 55.3816 16.3827 55.301C16.3881 55.2197 16.458 55.159 16.5393 55.1644C16.6199 55.1698 16.6813 55.2396 16.6751 55.321Z" fill="white"/>
<path d="M19.5 55.666C19.5046 55.6767 19.5092 55.6866 19.5138 55.6973H19.513C19.5084 55.6874 19.5038 55.6767 19.5 55.666Z" fill="#FFAC00"/>
<path d="M21.0417 54.3669L19.856 55.3999C19.7685 55.0998 19.6135 54.8397 19.3679 54.6302L20.45 53.6877C20.5667 53.5864 20.7432 53.5987 20.8452 53.7154L21.0686 53.9717C21.1706 54.0883 21.1584 54.2656 21.0417 54.3669Z" fill="#FFAC00"/>
<path d="M18.9721 56.0142C18.8094 56.0687 18.6582 56.1531 18.5285 56.2659L17.3697 57.2758C17.2737 57.3595 17.1279 57.3495 17.0435 57.2528C16.9599 57.1569 16.9698 57.0111 17.0665 56.9274L18.2307 55.9129C18.3251 55.8307 18.4065 55.7348 18.4732 55.6289L18.5139 55.6757C18.6283 55.8077 18.7687 55.9144 18.926 55.9904L18.9521 56.0034C18.959 56.0065 18.9652 56.0111 18.9721 56.0142Z" fill="#FFAC00"/>
<path d="M20.7049 57.5058C20.6082 57.5895 20.4624 57.5795 20.3787 57.4836L19.3642 56.3186C19.2544 56.1927 19.1209 56.0899 18.972 56.0147C18.9651 56.0116 18.959 56.007 18.9521 56.0039L18.926 55.9909C18.7686 55.9149 18.6282 55.8082 18.5139 55.6762L18.4732 55.6294L17.1401 54.0999C17.0388 53.9833 17.0511 53.806 17.1678 53.7047L17.4241 53.4814C17.5407 53.3793 17.718 53.3916 17.8193 53.5082L19.0442 54.9142L19.1984 55.0907C19.3158 55.2258 19.4049 55.3846 19.4578 55.5558C19.4732 55.6049 19.4923 55.6532 19.5131 55.7C19.5653 55.8159 19.6336 55.9249 19.718 56.0208L20.7272 57.1804C20.8108 57.2764 20.8008 57.4222 20.7049 57.5058Z" fill="#FFAC00"/>
<path d="M19.2827 57.7533C19.2658 57.992 19.0594 58.1724 18.8207 58.1562C18.582 58.1394 18.4017 57.9329 18.4186 57.6942C18.4347 57.4556 18.6419 57.2752 18.8798 57.2921C19.1185 57.3082 19.2988 57.5154 19.2827 57.7533Z" fill="#A39CFF"/>
<path d="M21.6273 55.6635C21.6219 55.7441 21.5521 55.8055 21.4707 55.7994C21.3902 55.794 21.3288 55.7241 21.3349 55.6428C21.3403 55.5622 21.4101 55.5008 21.4915 55.5062C21.572 55.5123 21.6334 55.5822 21.6273 55.6635Z" fill="white"/>
<path d="M42.3866 35.5716C41.9906 35.8141 41.5501 36.0052 41.059 36.1341C40.7811 36.2078 40.488 36.2615 40.1779 36.2945C39.8257 36.3314 39.4826 36.3544 39.1503 36.3636V41.8362L38.7658 46.1147C38.6653 46.3872 38.541 46.665 38.386 46.9374C38.3084 47.0748 38.2217 47.2114 38.1273 47.3457C37.5817 48.1208 36.7521 48.8192 35.495 49.2175C35.3484 49.2643 35.1949 49.3073 35.0361 49.3449C34.4428 49.4876 33.7644 49.5682 32.9893 49.5682C32.5657 49.5682 32.1697 49.5444 31.799 49.4991C31.6355 49.4792 31.4774 49.4554 31.324 49.4278C29.9748 49.1845 28.994 48.6473 28.281 47.9903C28.1613 47.8806 28.05 47.767 27.9457 47.6511C27.3755 47.0211 27.0132 46.3165 26.783 45.6673L26.44 41.86L26.8651 30.2601C26.9227 30.2724 26.9825 30.2801 27.0432 30.2801C27.499 30.2801 27.8689 29.9102 27.8689 29.4543C27.8689 28.9985 27.499 28.6293 27.0432 28.6293C26.5873 28.6293 26.2182 28.9985 26.2182 29.4543C26.2182 29.5894 26.2512 29.7168 26.3087 29.8296C24.9557 29.5633 23.9304 28.2909 23.9304 26.7606C23.9304 26.647 23.9358 26.535 23.9473 26.4252C23.9772 26.1282 24.0455 25.8435 24.1468 25.578C24.3318 25.0929 24.6273 24.6701 24.9987 24.3439C25.3187 24.063 25.6948 23.8543 26.1069 23.7399C26.1215 23.7361 26.1353 23.7323 26.1499 23.7284C26.1829 23.7192 26.2159 23.7116 26.2496 23.7039C26.4392 23.6624 26.6357 23.6402 26.836 23.6402C26.8521 23.6402 26.8728 23.6402 26.8943 23.6417C27.0447 23.6463 27.192 23.6663 27.3356 23.7008C27.5765 23.7584 27.8075 23.8543 28.024 23.9756C28.215 24.0815 28.3954 24.2073 28.5612 24.3447C28.8359 24.4115 29.106 24.4966 29.3731 24.6133C29.4951 24.6662 29.6187 24.7261 29.71 24.8236C29.753 24.8689 29.8397 24.9379 29.8336 24.8289C29.8336 24.8282 29.7461 23.2388 29.7461 23.2388C29.7116 22.6103 29.8743 21.9856 30.2112 21.4537L30.479 21.0316C30.492 21.0117 30.5036 20.991 30.5151 20.9703C30.7046 20.6264 30.7031 20.2066 30.5059 19.8628L30.1636 19.2627C29.7967 18.6211 30.1306 17.8061 30.842 17.6073C32.1444 17.2436 34.2111 16.7455 36.3768 16.539H36.3783C38.5832 16.3288 40.8894 16.4209 42.5931 17.2658H42.5938C42.6944 17.3165 42.7918 17.3686 42.8878 17.4239C43.1909 17.5973 43.4718 17.7976 43.7251 18.0279L44.8294 21.0002C44.8616 21.1345 44.8923 21.2696 44.92 21.4046C45.712 25.2188 46.4203 33.0981 42.3866 35.5716Z" fill="#C16D53"/>
<path d="M36.095 24.0271C36.3051 24.0117 36.4509 23.6634 36.4206 23.2492C36.3903 22.8349 36.1955 22.5115 35.9854 22.5269C35.7753 22.5422 35.6295 22.8905 35.6598 23.3048C35.6901 23.719 35.8849 24.0424 36.095 24.0271Z" fill="#231F20"/>
<path d="M42.7947 23.7361C43.0048 23.7207 43.1506 23.3724 43.1203 22.9582C43.09 22.5439 42.8952 22.2205 42.6851 22.2359C42.475 22.2512 42.3292 22.5995 42.3595 23.0138C42.3898 23.428 42.5846 23.7514 42.7947 23.7361Z" fill="#231F20"/>
<g style="mix-blend-mode:screen">
<path d="M42.3865 35.5695C41.9905 35.812 41.55 36.0031 41.0588 36.132C43.4487 35.2326 44.4133 31.1559 44.4057 27.331C44.398 23.3602 43.2192 19.1025 42.593 17.2637C42.8961 17.4371 43.4717 17.7955 43.7249 18.0257L44.8293 20.998C44.8615 21.1323 44.8922 21.2674 44.9198 21.4025C45.7118 25.2167 46.4202 33.096 42.3865 35.5695Z" fill="#E5765C"/>
</g>
<path d="M39.1502 36.3639C39.1502 36.3639 33.5778 36.9549 30.0208 31.7754C30.0208 31.7754 31.1642 40.053 39.1502 41.1581V36.3639Z" fill="#843928"/>
<path d="M44.9597 13.4411C44.9597 14.4564 44.8101 15.1671 44.8101 15.1671C44.5937 8.38598 37.7688 6.75593 37.7688 6.75593H37.7696C39.2707 5.95165 41.2184 6.61549 42.979 8.23325C43.0565 8.30463 43.1309 8.37677 43.2023 8.45044C44.6589 9.95232 44.9597 12.0022 44.9597 13.4411Z" fill="#872F1B"/>
<path d="M35.5579 12.9808C35.5579 12.9808 38.9461 15.3023 41.2308 12.2148C41.2308 12.2148 40.9875 14.178 39.6552 14.9239C38.6192 15.5049 36.6123 15.3452 35.5579 12.9808Z" fill="#872F1B"/>
<path d="M40.4404 13.6367C40.4404 13.6367 41.3253 14.7219 42.9761 14.0005C42.9761 14.0005 40.7965 15.7579 40.4404 13.6367Z" fill="#872F1B"/>
<path d="M46.1011 64.7194V63.8468H46.6038L45.646 61.467H44.567V63.8468H45.151V64.7194H43.0989V63.8468H43.6944V58.2261H43.0989V57.3535H47.3843L47.8793 57.8585V60.9728L47.385 61.467H46.4948L47.4526 63.8468H48.1533V64.7194H46.1011ZM44.567 60.5944H47.019V58.2261H44.567V60.5944Z" fill="#DAD7FF"/>
<g style="mix-blend-mode:soft-light">
<path d="M60.5159 51.1795L57.9196 49.1826L56.7976 48.3192C56.024 47.7245 55.1108 47.3392 54.1453 47.1995L43.2991 45.6316L43.5117 44.0898L54.4677 45.6516C55.8936 45.8772 57.1744 46.6523 58.0363 47.8104L58.4507 48.3676L60.5136 51.1396L60.5159 51.1795Z" fill="white"/>
</g>
<g style="mix-blend-mode:soft-light">
<path d="M22.3481 46.0576L12.4411 47.0714C10.6108 47.2586 8.88406 48.0099 7.49959 49.2217L5.38989 51.0682L7.23406 48.3607L7.49575 47.9762C8.35375 46.7168 9.69294 45.868 11.1979 45.6293L22.0764 44.0898L22.3481 46.0583V46.0576Z" fill="white"/>
</g>
<g style="mix-blend-mode:screen">
<path d="M28.1059 24.3309C27.8887 24.5542 27.1182 24.611 26.9356 24.5865C26.5227 24.5297 26.0967 24.4192 25.6969 24.5381C25.2932 24.6578 24.9939 24.9894 24.6524 25.2365C24.6163 25.2626 24.5787 25.2879 24.535 25.2948C24.2641 25.3386 24.4314 25.0063 24.4897 24.9188C24.6317 24.7054 24.8059 24.5113 24.9985 24.3424C25.0899 24.2948 25.1804 24.2442 25.2679 24.1836C25.5472 23.9909 25.7867 23.8336 26.1067 23.7384C26.1213 23.7346 26.1351 23.7308 26.1497 23.7269C26.1827 23.7177 26.2157 23.71 26.2495 23.7024C26.439 23.6609 26.6355 23.6387 26.8358 23.6387C26.9309 23.6387 27.1251 23.6563 27.3354 23.6993C27.5925 23.7507 27.8726 23.8382 28.0238 23.974C28.1903 24.1237 28.1934 24.2411 28.1059 24.3309Z" fill="#E5765C"/>
</g>
<path d="M44.8752 58.543V60.2828H46.6979V58.543H44.8752ZM46.5191 60.1039H45.0541V58.7218H46.5191V60.1039Z" fill="white"/>
<path d="M47.7946 63.3451L47.2221 61.9629H47.592L48.3779 61.1763V57.6499L47.592 56.8633H42.6113V58.722H43.1954V63.3451H42.6113V65.2038H48.6519V63.3451H47.7946ZM48.4738 65.025H45.7924V63.5239H46.15L45.4355 61.7841H44.8753V63.5239H45.4708V65.025H42.7901V63.5239H43.3742V58.5432H42.7901V57.0421H47.5207L48.1991 57.7213V61.1049L47.5207 61.7841H46.9604L47.6634 63.5239H48.4738V65.025ZM45.0541 63.3451V61.9629H45.3158L45.876 63.3451H45.0541Z" fill="white"/>
<path d="M44.8752 58.543V60.2828H46.6979V58.543H44.8752ZM46.5191 60.1039H45.0541V58.7218H46.5191V60.1039Z" fill="white"/>
<path d="M44.8752 58.543V60.2828H46.6979V58.543H44.8752ZM46.5191 60.1039H45.0541V58.7218H46.5191V60.1039Z" fill="white"/>
<g style="mix-blend-mode:soft-light">
<path d="M26.4398 41.8594L26.7322 44.9652L22.3363 46.101L22.0762 44.0888L26.4398 41.8594Z" fill="white"/>
</g>
<g style="mix-blend-mode:soft-light">
<path d="M39.1503 41.8359L38.9055 44.7806L43.2991 45.6302L43.5117 44.0884L39.1503 41.8359Z" fill="white"/>
</g>
<path d="M26.3093 29.9435C26.3017 29.9435 26.2948 29.9435 26.2871 29.9412C24.855 29.6596 23.8159 28.3212 23.8159 26.7594C23.8159 25.1977 24.8297 23.8976 26.2257 23.5907C26.2878 23.5768 26.3492 23.616 26.3631 23.6782C26.3769 23.7403 26.3377 23.8017 26.2756 23.8155C24.984 24.0995 24.0469 25.3381 24.0469 26.7602C24.0469 28.1823 25.0078 29.4555 26.3324 29.7164C26.3945 29.7287 26.4352 29.7893 26.4229 29.8515C26.4122 29.9067 26.3638 29.9443 26.3101 29.9443L26.3093 29.9435Z" fill="#231F20"/>
<path d="M28.6978 24.5768C28.6701 24.5768 28.6433 24.5668 28.621 24.5476C28.2181 24.1862 27.5819 23.7556 26.8359 23.7556C26.6472 23.7556 26.4584 23.7763 26.2742 23.8162C26.212 23.8301 26.1506 23.7909 26.1368 23.7288C26.123 23.6666 26.1621 23.6052 26.2243 23.5914C26.4238 23.5476 26.6295 23.5254 26.8352 23.5254C27.6533 23.5254 28.3409 23.9882 28.7737 24.3765C28.8213 24.4187 28.8252 24.4916 28.7822 24.5392C28.7592 24.5645 28.7277 24.5776 28.6962 24.5776L28.6978 24.5768Z" fill="#231F20"/>
<path d="M26.3141 28.3688C26.278 28.3688 26.2427 28.3519 26.2197 28.3204C26.1828 28.2682 26.1951 28.1968 26.2473 28.16C26.2542 28.1554 26.925 27.6734 26.9871 27.1992C27.0048 27.0626 26.9687 26.9428 26.8774 26.8331C26.6732 26.5883 26.3877 26.7257 26.0224 27.0088C26.004 27.0234 25.9802 27.0426 25.9518 27.0656C25.6733 27.2943 25.3847 27.51 25.1844 27.4071C25.0777 27.3527 25.0301 27.2276 25.0424 27.0349C25.0677 26.6389 25.1913 26.2506 25.3985 25.9129C25.5743 25.6275 25.7853 25.4202 26.0263 25.2982C26.5336 25.0411 27.1483 25.1532 27.6832 25.2975C27.7446 25.3143 27.7806 25.3773 27.7645 25.4387C27.7484 25.5001 27.6855 25.5361 27.6233 25.52C27.1306 25.3872 26.5673 25.2821 26.1299 25.5039C25.9273 25.6067 25.7469 25.7848 25.5942 26.0342C25.4062 26.3404 25.2941 26.6919 25.2719 27.0503C25.2642 27.1754 25.2895 27.203 25.2903 27.203C25.3218 27.2168 25.433 27.1946 25.806 26.8884C25.836 26.8638 25.862 26.8423 25.882 26.827C26.1168 26.6458 26.6663 26.2207 27.0546 26.6865C27.1882 26.8461 27.2419 27.0296 27.2158 27.2306C27.1406 27.8054 26.4115 28.3273 26.3808 28.3496C26.3609 28.3641 26.3371 28.3711 26.3141 28.3711V28.3688Z" fill="#231F20"/>
<path d="M40.7121 27.2967C40.6783 27.2967 40.6423 27.2929 40.6047 27.2852C40.2524 27.2116 39.9416 27.0335 39.6584 26.8524C39.6047 26.8179 39.5893 26.7473 39.6231 26.6935C39.6569 26.6398 39.729 26.6245 39.782 26.6582C40.0467 26.8278 40.3353 26.9936 40.6507 27.0596C40.8103 27.0926 40.9362 26.9898 41.0713 26.715C41.4297 25.9844 41.1165 25.0121 40.7635 24.1579C40.5333 23.6007 40.2608 23.0704 39.9546 22.5808C39.9209 22.5271 39.937 22.4557 39.9907 22.4219C40.0444 22.3882 40.1158 22.4043 40.1496 22.458C40.4627 22.9584 40.7413 23.5002 40.9761 24.0696C41.3491 24.9722 41.676 26.0036 41.2777 26.8163C41.2102 26.9537 41.0421 27.2967 40.7113 27.2967H40.7121Z" fill="#231F20"/>
<path d="M38.1365 30.6214C36.8718 30.6214 35.8526 29.6682 35.4797 29.2676C35.4367 29.2208 35.439 29.1479 35.4858 29.1049C35.5326 29.0619 35.6055 29.0642 35.6485 29.111C37.62 31.2353 39.2762 30.1985 39.897 29.6544C39.9446 29.6122 40.0175 29.6175 40.0597 29.6651C40.102 29.7127 40.0966 29.7856 40.049 29.8278C39.3852 30.4103 38.7336 30.6221 38.1365 30.6221V30.6214Z" fill="#231F20"/>
<path d="M35.564 29.3064C35.5202 29.3064 35.478 29.281 35.4589 29.2381C35.4328 29.1797 35.4589 29.1122 35.5172 29.0861C35.6883 29.0101 35.8334 28.8958 35.9485 28.7461C35.9869 28.6955 36.0598 28.6863 36.1096 28.7254C36.1603 28.7646 36.1695 28.8367 36.1304 28.8866C35.9915 29.0669 35.8172 29.2043 35.6108 29.2964C35.5955 29.3033 35.5793 29.3064 35.564 29.3064Z" fill="#231F20"/>
<path d="M34.9922 29.4228C34.9077 29.4228 34.8548 29.4159 34.8494 29.4151C34.7865 29.4059 34.7427 29.3476 34.752 29.2846C34.7612 29.2217 34.8195 29.178 34.8824 29.1872C34.8855 29.1872 35.1955 29.2279 35.5179 29.0843C35.5762 29.0582 35.6437 29.0843 35.6698 29.1427C35.6959 29.201 35.6698 29.2685 35.6115 29.2946C35.369 29.4028 35.1357 29.4236 34.9929 29.4236L34.9922 29.4228Z" fill="#231F20"/>
<path d="M26.2494 23.8184C26.1888 23.8184 26.1382 23.7716 26.1343 23.7102L26.1328 23.6826C26.0952 23.0794 26.0016 21.5698 25.9148 20.2314C25.4459 20.4141 24.01 20.9022 23.1428 20.4256C22.7852 20.2291 22.568 19.8945 22.4967 19.4318C22.3815 18.6881 22.6908 18.1716 23.39 17.9375C23.4498 17.9176 23.5158 17.9498 23.5358 18.0104C23.5557 18.0711 23.5235 18.1363 23.4629 18.1563C22.8673 18.3558 22.6256 18.7618 22.7238 19.3972C22.7844 19.7909 22.9579 20.0618 23.2533 20.2237C24.1796 20.7326 25.9555 19.9667 25.9732 19.959C26.0077 19.9436 26.0468 19.9467 26.0791 19.9659C26.1113 19.9851 26.1313 20.0196 26.1343 20.0564C26.2233 21.4332 26.3239 23.0403 26.363 23.668L26.3646 23.6964C26.3684 23.7601 26.32 23.8146 26.2571 23.8184C26.2548 23.8184 26.2525 23.8184 26.2502 23.8184H26.2494Z" fill="#231F20"/>
<path d="M23.4269 18.1619C23.3785 18.1619 23.334 18.1312 23.3179 18.0836C23.298 18.023 23.3302 17.9578 23.3908 17.9378C24.3148 17.6278 25.6141 17.9033 25.6694 17.9156C25.7315 17.9294 25.7707 17.99 25.7576 18.0522C25.7446 18.1143 25.6832 18.1542 25.621 18.1404C25.608 18.1373 24.3279 17.8664 23.4645 18.1565C23.4522 18.1604 23.4399 18.1627 23.4277 18.1627L23.4269 18.1619Z" fill="#231F20"/>
<path d="M29.8067 25.0023C29.7599 25.0023 29.6985 24.9793 29.6264 24.9018C29.5481 24.8181 29.4361 24.7652 29.3279 24.7184C29.0838 24.6125 28.8244 24.5265 28.5351 24.4567C28.4729 24.4421 28.4353 24.3791 28.4499 24.3178C28.4645 24.2564 28.5267 24.218 28.5888 24.2326C28.892 24.3055 29.1636 24.396 29.42 24.5073C29.5144 24.548 29.6187 24.5971 29.7108 24.6685C29.6878 24.2556 29.6325 23.2456 29.6325 23.2456C29.5965 22.5887 29.763 21.9479 30.1153 21.393L30.3831 20.9702C30.5857 20.6509 30.5949 20.2488 30.4069 19.9203L30.0638 19.3202C29.8712 18.9833 29.8451 18.5842 29.9925 18.225C30.1398 17.8666 30.4384 17.6011 30.8113 17.4967C33.6854 16.694 40.7044 15.1307 43.8026 17.9434C43.8164 17.9557 43.8264 17.971 43.8333 17.9887L44.9376 20.9602C44.9599 21.0201 44.9292 21.0861 44.8701 21.1083C44.8102 21.1306 44.7442 21.0999 44.722 21.0408L43.6268 18.0953C40.6031 15.3855 33.7038 16.9281 30.8727 17.7185C30.568 17.8037 30.3248 18.0201 30.2051 18.3125C30.0846 18.6057 30.1061 18.9311 30.2634 19.2058L30.6064 19.806C30.8367 20.2089 30.8251 20.7016 30.5765 21.0937L30.3087 21.5166C29.9825 22.0315 29.8275 22.6248 29.8612 23.2334C29.9201 24.295 29.9495 24.8271 29.9495 24.8296C29.9556 24.9394 29.8904 24.9801 29.862 24.9916C29.8467 24.9977 29.8282 25.0031 29.8075 25.0031L29.8067 25.0023Z" fill="#231F20"/>
<path d="M44.8314 21.1189C44.7839 21.1189 44.7409 21.0897 44.724 21.0444C44.7117 21.013 44.7148 20.9784 44.7286 20.9501C44.7862 20.7835 45.3203 19.1811 44.9481 17.8995C44.9374 17.8634 44.9458 17.8235 44.9696 17.7943C45.3748 17.2986 45.5444 16.8151 45.473 16.3569C45.3671 15.6731 44.7532 15.2664 44.747 15.2625C44.7071 15.2364 44.6872 15.1889 44.6971 15.1421C44.7064 15.0991 45.5782 10.7753 42.9013 8.31642C41.4186 6.95421 39.896 6.33642 38.6129 6.5774C37.6328 6.76159 36.8516 7.43233 36.2929 8.57121C36.2752 8.60728 36.2392 8.63184 36.1993 8.63491C36.1578 8.63875 36.1194 8.62033 36.0964 8.58733C36.0887 8.57659 35.332 7.54361 34.3881 7.56126C33.8371 7.57124 33.319 7.93501 32.8471 8.64182C32.8271 8.67175 32.7949 8.69017 32.7588 8.69324C32.7235 8.69554 32.6882 8.68096 32.6644 8.6541C32.6621 8.65103 32.3874 8.34175 31.8317 8.03017C31.3199 7.74238 30.4565 7.39396 29.2524 7.3648C27.2501 7.31568 25.805 8.04398 25.2878 9.36014C24.7928 10.6195 25.2364 12.1521 26.3906 13.1728C26.4297 13.2081 26.4405 13.2649 26.4167 13.3117C26.3921 13.3585 26.3392 13.3831 26.2877 13.3708C26.2624 13.3647 23.736 12.7875 22.637 13.9709C22.218 14.4222 21.7667 15.5565 22.0116 16.5127C22.1865 17.195 22.6746 17.6738 23.4628 17.9363C23.5234 17.9563 23.5557 18.0215 23.5357 18.0821C23.5157 18.142 23.4505 18.175 23.3899 18.155C22.535 17.8711 21.9809 17.3231 21.7882 16.5703C21.5112 15.4874 22.03 14.2856 22.4682 13.8144C23.3999 12.8121 25.1765 12.9541 25.9585 13.0753C24.9432 12.0009 24.5856 10.5174 25.0737 9.27649C25.6285 7.8644 27.1557 7.08391 29.2585 7.13456C31.2907 7.18368 32.4073 8.08466 32.7358 8.39854C33.2316 7.70094 33.7864 7.34177 34.385 7.3318C34.3942 7.3318 34.4027 7.3318 34.4119 7.3318C35.2453 7.3318 35.9107 8.00561 36.1686 8.30952C36.7503 7.21361 37.5776 6.53826 38.5707 6.35177C39.926 6.09698 41.5192 6.73473 43.0571 8.14759C45.6334 10.5136 45.0417 14.5189 44.9366 15.1152C45.1139 15.2487 45.5981 15.6662 45.7002 16.3201C45.78 16.8312 45.6073 17.3607 45.1852 17.8941C45.5644 19.3016 44.9657 20.9723 44.9397 21.0437C44.9235 21.089 44.8806 21.1189 44.8322 21.1197L44.8314 21.1189Z" fill="#231F20"/>
<path d="M27.6195 51.1543C27.5811 51.1543 27.5427 51.1351 27.5212 51.099C27.2404 50.6401 27.0669 50.1167 27.0193 49.5841L26.9741 49.0845C26.9687 49.0208 27.0147 48.9655 27.0784 48.9594C27.1421 48.954 27.1974 49.0001 27.2035 49.0638L27.2488 49.5634C27.2933 50.0607 27.4552 50.5495 27.7177 50.9785C27.7507 51.033 27.7338 51.1036 27.6793 51.1366C27.6609 51.1482 27.6402 51.1535 27.6195 51.1535V51.1543Z" fill="#231F20"/>
<path d="M29.0538 53.385C29.0476 53.385 29.0415 53.385 29.0353 53.3835L27.3608 53.1095C27.2979 53.0995 27.2556 53.0396 27.2656 52.9775C27.2756 52.9146 27.3355 52.8723 27.3976 52.8823L29.0722 53.1563C29.1351 53.1663 29.1773 53.2261 29.1673 53.2883C29.1581 53.3451 29.109 53.385 29.0538 53.385Z" fill="#231F20"/>
<path d="M22.076 44.2017C22.0192 44.2017 21.9701 44.1595 21.9625 44.1019L21.9609 44.0912C21.9548 44.0436 21.9786 43.9968 22.0208 43.9745L23.8611 42.9976C23.9171 42.9684 23.987 42.9891 24.0169 43.0451C24.0468 43.1012 24.0253 43.171 23.9693 43.2009L22.1674 44.1572C22.1497 44.1802 22.1229 44.1963 22.0922 44.2009C22.0868 44.2009 22.0822 44.2017 22.0768 44.2017H22.076Z" fill="#231F20"/>
<path d="M25.201 42.532C25.1596 42.532 25.1197 42.5097 25.099 42.4706C25.069 42.4145 25.0905 42.3447 25.1465 42.3148L26.3768 41.6617C26.4105 41.644 26.452 41.644 26.4857 41.6617C26.5195 41.6801 26.5418 41.7139 26.5456 41.7522L26.554 41.8474C26.5594 41.9111 26.5134 41.9664 26.4497 41.9725C26.4113 41.9756 26.3768 41.9602 26.353 41.9341L25.254 42.5174C25.2371 42.5266 25.2187 42.5304 25.2003 42.5304L25.201 42.532Z" fill="#231F20"/>
<path d="M29.0538 53.3846C29.0162 53.3846 28.9786 53.3661 28.9571 53.3316L27.5658 51.1705C27.5558 51.1544 27.5458 51.1383 27.5358 51.1221L27.5212 51.0968C27.4882 51.0423 27.5051 50.9717 27.5596 50.9387C27.6141 50.9057 27.6847 50.9226 27.7177 50.9771L27.7346 51.0055C27.7423 51.0193 27.7507 51.0331 27.7591 51.0462L29.1505 53.208C29.1851 53.2618 29.1697 53.3324 29.116 53.3669C29.0968 53.3792 29.0753 53.3853 29.0538 53.3853V53.3846Z" fill="#231F20"/>
<path d="M27.0353 48.5926C26.9762 48.5926 26.9263 48.5473 26.9209 48.4874L26.6677 45.6763C26.6623 45.6126 26.7083 45.5573 26.772 45.5512C26.835 45.5458 26.891 45.5919 26.8971 45.6556L27.1504 48.4667C27.1558 48.5304 27.1097 48.5857 27.046 48.5918C27.0422 48.5918 27.0391 48.5918 27.0353 48.5918V48.5926Z" fill="#231F20"/>
<path d="M26.783 45.7809C26.7239 45.7809 26.674 45.7356 26.6687 45.6758L26.3256 41.8677C26.3202 41.804 26.3663 41.7488 26.43 41.7426C26.4929 41.7372 26.5489 41.7833 26.5551 41.847L26.8981 45.655C26.9035 45.7187 26.8575 45.774 26.7938 45.7801C26.7899 45.7801 26.7869 45.7801 26.783 45.7801V45.7809Z" fill="#231F20"/>
<path d="M25.4751 52.6932C25.4605 52.6932 25.4467 52.6909 25.4321 52.6848C24.0323 52.1253 23.0101 50.9097 22.6969 49.4339C22.6969 49.4308 22.6962 49.4285 22.6954 49.4255L21.9617 44.1032C21.9533 44.0403 21.997 43.982 22.06 43.9735C22.1221 43.9659 22.1812 44.0088 22.1897 44.0718L22.9226 49.3894C23.2203 50.7877 24.1904 51.9396 25.5173 52.4699C25.5764 52.4937 25.6048 52.5605 25.5818 52.6195C25.5641 52.6648 25.5204 52.6917 25.4751 52.6917V52.6932Z" fill="#231F20"/>
<path d="M27.0892 49.1896C27.0301 49.1896 26.9802 49.1443 26.9748 49.0845L26.9211 48.4889C26.9157 48.4252 26.9618 48.37 27.0255 48.3638C27.0892 48.3577 27.1444 48.4045 27.1505 48.4682L27.2043 49.0637C27.2096 49.1274 27.1636 49.1827 27.0999 49.1888C27.0961 49.1888 27.093 49.1888 27.0892 49.1888V49.1896Z" fill="#231F20"/>
<path d="M27.3784 53.1107C27.3408 53.1107 27.3032 53.0923 27.2817 53.0578L26.4774 51.8069C26.0607 51.1607 25.8044 50.4147 25.7361 49.6488L25.0868 42.4264C25.0815 42.3627 25.1283 42.3075 25.1912 42.3013C25.2534 42.2952 25.3102 42.342 25.3163 42.4057L25.9656 49.6281C26.0308 50.3564 26.2748 51.067 26.6716 51.6818L27.4767 52.9327C27.5112 52.9864 27.4958 53.057 27.4421 53.0916C27.4229 53.1038 27.4015 53.11 27.38 53.11L27.3784 53.1107Z" fill="#231F20"/>
<path d="M25.475 52.6934C25.4374 52.6934 25.3998 52.6749 25.3783 52.6404L25.1757 52.3258C24.7598 51.678 24.5035 50.9313 24.4352 50.1669L23.8005 43.1118C23.7951 43.0481 23.8412 42.9929 23.9048 42.9868C23.9685 42.9814 24.0238 43.0274 24.0299 43.0911L24.6646 50.147C24.7298 50.8745 24.9739 51.5852 25.3699 52.2022L25.5725 52.5168C25.607 52.5706 25.5917 52.6412 25.538 52.6757C25.5188 52.688 25.4973 52.6941 25.4758 52.6941L25.475 52.6934Z" fill="#231F20"/>
<path d="M27.3792 53.1114C27.373 53.1114 27.3669 53.1113 27.3608 53.1098L26.3815 52.9494C26.0538 52.8957 25.7346 52.8059 25.4329 52.6847C25.3739 52.6609 25.3455 52.5941 25.3692 52.535C25.393 52.4759 25.4598 52.4475 25.5189 52.4713C25.8052 52.5864 26.1075 52.6716 26.4183 52.7223L27.3976 52.8827C27.4605 52.8926 27.5027 52.9525 27.4928 53.0147C27.4836 53.0714 27.4344 53.1114 27.3792 53.1114Z" fill="#231F20"/>
<path d="M23.9151 43.2153C23.8737 43.2153 23.8338 43.193 23.8131 43.1539C23.7831 43.0979 23.8046 43.028 23.8607 42.9981L25.1469 42.3143C25.2029 42.2844 25.2727 42.3059 25.3027 42.3619C25.3326 42.4179 25.3111 42.4877 25.2551 42.5177L23.9689 43.2015C23.952 43.2107 23.9328 43.2153 23.9151 43.2153Z" fill="#231F20"/>
<path d="M36.5348 53.3856C36.5133 53.3856 36.4918 53.3794 36.4727 53.3672C36.4189 53.3326 36.4036 53.2612 36.4381 53.2083L37.785 51.1155C37.8195 51.0618 37.8909 51.0464 37.9438 51.0809C37.9976 51.1155 38.0129 51.1868 37.9784 51.2398L36.6315 53.3326C36.6093 53.3672 36.5724 53.3856 36.5348 53.3856Z" fill="#231F20"/>
<path d="M36.535 53.385C36.4797 53.385 36.4306 53.3451 36.4214 53.2883C36.4114 53.2254 36.4536 53.1663 36.5165 53.1563L38.1919 52.8823C38.2548 52.8723 38.3139 52.9146 38.3239 52.9775C38.3338 53.0404 38.2916 53.0995 38.2287 53.1095L36.5534 53.3835C36.5472 53.3842 36.5411 53.385 36.535 53.385Z" fill="#231F20"/>
<path d="M38.669 47.3031C38.669 47.3031 38.6621 47.3031 38.6583 47.3031C38.5946 47.2978 38.5485 47.2417 38.5539 47.178L38.6506 46.1028C38.656 46.0391 38.7112 45.9931 38.7757 45.9985C38.8394 46.0038 38.8854 46.0599 38.8801 46.1236L38.7834 47.1988C38.778 47.2586 38.7281 47.3039 38.669 47.3039V47.3031Z" fill="#231F20"/>
<path d="M38.6153 47.894C38.6153 47.894 38.6084 47.894 38.6046 47.894C38.5409 47.8886 38.4948 47.8326 38.5002 47.7689L38.5531 47.1772C38.5585 47.1135 38.6138 47.0667 38.6782 47.0728C38.7419 47.0782 38.788 47.1342 38.7826 47.1979L38.7296 47.7896C38.7243 47.8495 38.6744 47.8947 38.6153 47.8947V47.894Z" fill="#231F20"/>
<path d="M43.5124 44.2032C43.5071 44.2032 43.5025 44.2032 43.4971 44.2024C43.4664 44.1986 43.4395 44.1825 43.4219 44.1594L41.6199 43.2032C41.5639 43.1733 41.5424 43.1034 41.5724 43.0474C41.6023 42.9914 41.6721 42.9699 41.7281 42.9998L43.5685 43.9768C43.6114 43.9991 43.6352 44.0459 43.6283 44.0942L43.6268 44.105C43.6191 44.1625 43.5692 44.2047 43.5132 44.2047L43.5124 44.2032Z" fill="#231F20"/>
<path d="M38.7657 46.2272C38.7657 46.2272 38.7588 46.2272 38.7549 46.2272C38.6912 46.2219 38.6452 46.1658 38.6506 46.1021L39.0358 41.8237C39.0412 41.76 39.0972 41.7132 39.1609 41.7193C39.2246 41.7247 39.2707 41.7807 39.2653 41.8444L38.88 46.1229C38.8747 46.1827 38.8248 46.228 38.7657 46.228V46.2272Z" fill="#231F20"/>
<path d="M40.1135 52.6938C40.0682 52.6938 40.0245 52.6662 40.0068 52.6217C39.983 52.5626 40.0122 52.4958 40.0713 52.472C41.3982 51.9409 42.3683 50.7898 42.666 49.3915L43.3989 44.0739C43.4074 44.011 43.4665 43.9672 43.5286 43.9757C43.5916 43.9841 43.6353 44.0424 43.6269 44.1053L42.8932 49.4276C42.8932 49.4276 42.8924 49.4329 42.8916 49.436C42.5785 50.9118 41.5563 52.1267 40.1565 52.6869C40.1427 52.6923 40.1281 52.6953 40.1135 52.6953V52.6938Z" fill="#231F20"/>
<path d="M40.3873 42.531C40.3688 42.531 40.3504 42.5264 40.3335 42.5179L39.22 41.9263C39.1977 41.9424 39.1693 41.9508 39.1409 41.9485C39.0772 41.9431 39.0312 41.8871 39.0366 41.8234L39.0427 41.7528C39.0458 41.7144 39.0688 41.6799 39.1026 41.6623C39.1363 41.6438 39.1778 41.6438 39.2115 41.6623L40.4417 42.3153C40.4978 42.3453 40.5193 42.4151 40.4893 42.4711C40.4686 42.5103 40.4287 42.5325 40.3873 42.5325V42.531Z" fill="#231F20"/>
<path d="M37.8817 51.2934C37.8603 51.2934 37.8388 51.2872 37.8196 51.275C37.7659 51.2404 37.7505 51.169 37.785 51.1161L37.8296 51.0478C38.1166 50.6042 38.2923 50.0908 38.3399 49.5636L38.5011 47.7708C38.5064 47.7071 38.5625 47.6611 38.6262 47.6664C38.6899 47.6718 38.7359 47.7278 38.7305 47.7915L38.5694 49.5843C38.5187 50.1484 38.3299 50.6978 38.023 51.1729L37.9792 51.2412C37.957 51.2757 37.9201 51.2941 37.8825 51.2941L37.8817 51.2934Z" fill="#231F20"/>
<path d="M40.1127 52.6922C40.0912 52.6922 40.0697 52.686 40.0505 52.6738C39.9968 52.6392 39.9815 52.5678 40.016 52.5149L40.2186 52.2002C40.6146 51.584 40.8586 50.8733 40.9239 50.145L41.5586 43.0892C41.5639 43.0255 41.6199 42.9794 41.6836 42.9848C41.7473 42.9902 41.7934 43.0462 41.788 43.1099L41.1533 50.1658C41.085 50.9301 40.8287 51.6768 40.4128 52.3246L40.2102 52.6392C40.1879 52.6738 40.1511 52.6922 40.1135 52.6922H40.1127Z" fill="#231F20"/>
<path d="M38.2094 53.11C38.1879 53.11 38.1664 53.1038 38.1472 53.0916C38.0935 53.057 38.0781 52.9857 38.1127 52.9327L38.917 51.6818C39.313 51.067 39.557 50.3564 39.623 49.6281L40.2723 42.4057C40.2776 42.342 40.3352 42.2952 40.3973 42.3013C40.461 42.3067 40.5071 42.3627 40.5017 42.4264L39.8525 49.6488C39.7834 50.4147 39.5271 51.1607 39.1111 51.8069L38.3068 53.0578C38.2846 53.0923 38.2477 53.1107 38.2101 53.1107L38.2094 53.11Z" fill="#231F20"/>
<path d="M41.6738 43.2153C41.6553 43.2153 41.6369 43.2107 41.62 43.2015L40.3338 42.5177C40.2778 42.4877 40.2563 42.4179 40.2862 42.3619C40.3162 42.3059 40.386 42.2844 40.442 42.3143L41.7282 42.9981C41.7843 43.028 41.8058 43.0979 41.7758 43.1539C41.7551 43.193 41.7152 43.2153 41.6738 43.2153Z" fill="#231F20"/>
<path d="M38.2093 53.1114C38.154 53.1114 38.1049 53.0714 38.0957 53.0147C38.0857 52.9517 38.1279 52.8926 38.1909 52.8827L39.1701 52.7223C39.4809 52.6708 39.7833 52.5864 40.0696 52.4713C40.1287 52.4475 40.1954 52.4759 40.2192 52.535C40.243 52.5941 40.2146 52.6609 40.1555 52.6847C39.8539 52.8067 39.5347 52.8957 39.207 52.9494L38.2277 53.1098C38.2216 53.1106 38.2154 53.1114 38.2093 53.1114Z" fill="#231F20"/>
<path d="M38.8096 36.4834C35.8051 36.4834 33.6654 35.3967 32.3439 34.4113C30.7001 33.1865 29.9526 31.8864 29.9219 31.8312C29.8904 31.7759 29.9096 31.7061 29.9648 31.6746C30.0201 31.6431 30.0899 31.6623 30.1214 31.7176C30.1291 31.7306 30.8812 33.0368 32.4897 34.2325C33.9717 35.3345 36.5058 36.5663 40.1665 36.1795C41.6706 36.0199 42.8717 35.3384 43.7358 34.1534C44.778 32.7252 45.3413 30.591 45.4104 27.809C45.4802 25.0048 45.0121 22.4116 44.8079 21.4262C44.7826 21.3049 44.7535 21.1737 44.7181 21.0248C44.7036 20.9627 44.7419 20.9013 44.8033 20.8859C44.8663 20.8713 44.9269 20.9097 44.9422 20.9711C44.9783 21.1223 45.0082 21.255 45.0336 21.3786C45.2392 22.3717 45.7112 24.9863 45.6406 27.8136C45.5708 30.6424 44.9921 32.8212 43.9215 34.2877C43.0167 35.5279 41.7612 36.2409 40.1902 36.4067C39.7114 36.4573 39.2509 36.4811 38.8096 36.4811V36.4834Z" fill="#231F20"/>
<path d="M26.4399 41.9739C26.4399 41.9739 26.4368 41.9739 26.4353 41.9739C26.3716 41.9716 26.3225 41.9179 26.3248 41.855L26.7499 30.2551C26.7522 30.1914 26.806 30.143 26.8689 30.1446C26.9326 30.1469 26.9817 30.2006 26.9794 30.2635L26.5542 41.8634C26.5519 41.9256 26.5005 41.9747 26.4391 41.9747L26.4399 41.9739Z" fill="#231F20"/>
<path d="M29.898 55.8435C29.8351 55.8435 29.7836 55.7929 29.7829 55.7299L29.7568 53.9072C29.7453 53.6716 29.5649 53.4698 29.3278 53.4307L29.0346 53.3831C28.9717 53.3731 28.9295 53.3132 28.9394 53.2511C28.9494 53.1889 29.0093 53.1452 29.0714 53.1559L29.3646 53.2035C29.7077 53.2595 29.9694 53.5527 29.9862 53.8996L30.0123 55.7261C30.0131 55.7898 29.9624 55.842 29.8988 55.8427H29.8972L29.898 55.8435Z" fill="#231F20"/>
<path d="M7.23392 48.4744C7.21167 48.4744 7.18941 48.4683 7.16946 48.4544C7.11727 48.4184 7.10346 48.347 7.13953 48.2948L7.40122 47.9111C8.27304 46.631 9.6506 45.7577 11.1809 45.5159L22.0617 43.9757C22.1238 43.9672 22.1829 44.011 22.1921 44.0739C22.2013 44.1368 22.1568 44.1951 22.0939 44.2043L11.2154 45.7446C9.7496 45.9764 8.42883 46.8144 7.59232 48.0423L7.33062 48.426C7.30836 48.459 7.27229 48.4767 7.23546 48.4767L7.23392 48.4744Z" fill="#231F20"/>
<path d="M29.9677 60.7175C29.9047 60.7175 29.8533 60.6669 29.8526 60.604L29.7827 55.7299C29.782 55.6662 29.8326 55.614 29.8963 55.6133H29.8978C29.9608 55.6133 30.0122 55.6639 30.013 55.7269L30.0828 60.6009C30.0836 60.6646 30.0329 60.7168 29.9692 60.7175H29.9677Z" fill="#231F20"/>
<path d="M30.1857 75.9534H12.903C12.8393 75.9534 12.7878 75.902 12.7878 75.8383C12.7878 75.7746 12.8393 75.7232 12.903 75.7232H30.0683L29.8519 60.603C29.8511 60.5393 29.9018 60.4871 29.9655 60.4864C30.0277 60.4848 30.0814 60.5362 30.0821 60.5999L30.3001 75.8367C30.3001 75.8674 30.2886 75.8974 30.2671 75.9189C30.2456 75.9403 30.2157 75.9534 30.185 75.9534H30.1857Z" fill="#231F20"/>
<path d="M12.903 75.9551H-2.65539C-2.68609 75.9551 -2.71525 75.9428 -2.73674 75.9214C-2.75823 75.8999 -2.77051 75.8707 -2.77051 75.84L-2.7636 62.8656C-2.7636 62.8426 -2.75669 62.8204 -2.74365 62.8012L7.1387 48.2942C7.17477 48.242 7.24614 48.2282 7.29833 48.2643C7.35052 48.3004 7.36433 48.3717 7.32826 48.4239L-2.53337 62.9009L-2.54028 75.7241H12.903C12.9667 75.7241 13.0181 75.7755 13.0181 75.8392C13.0181 75.9029 12.9667 75.9544 12.903 75.9544V75.9551Z" fill="#231F20"/>
<path d="M39.151 41.9496C39.1433 41.9496 39.1357 41.9489 39.128 41.9473C39.1211 41.9458 39.1134 41.9435 39.1065 41.9404C39.0996 41.9373 39.0927 41.9343 39.0865 41.9297C39.0804 41.9258 39.0743 41.9212 39.0689 41.9159C39.0474 41.8944 39.0359 41.8644 39.0359 41.8337C39.0359 41.8268 39.0359 41.8192 39.0374 41.8115C39.039 41.8046 39.0413 41.7969 39.0443 41.79C39.0474 41.7831 39.0505 41.7762 39.0551 41.77C39.0589 41.7639 39.0635 41.7578 39.0689 41.7532C39.0743 41.7478 39.0804 41.7424 39.0865 41.7386C39.0927 41.734 39.0996 41.7309 39.1065 41.7278C39.1134 41.7248 39.1211 41.7225 39.128 41.7209C39.1656 41.7133 39.2055 41.7263 39.2323 41.7532C39.2531 41.7739 39.2661 41.8038 39.2661 41.8337C39.2661 41.8637 39.2531 41.8944 39.2323 41.9159C39.227 41.9212 39.2208 41.9258 39.2147 41.9297C39.2086 41.9343 39.2017 41.9373 39.1947 41.9404C39.1878 41.9435 39.1802 41.9458 39.1733 41.9473C39.1656 41.9489 39.1579 41.9496 39.151 41.9496Z" fill="#231F20"/>
<path d="M39.1503 41.9501C39.0866 41.9501 39.0352 41.8986 39.0352 41.835V36.3807C39.0352 36.317 39.0866 36.2656 39.1503 36.2656C39.214 36.2656 39.2654 36.317 39.2654 36.3807V41.835C39.2654 41.8986 39.214 41.9501 39.1503 41.9501Z" fill="#231F20"/>
<path d="M35.6276 60.2521H35.626C35.5623 60.2514 35.5117 60.1992 35.5125 60.1355L35.6015 53.9054C35.6184 53.5539 35.8801 53.2615 36.2231 53.2055L36.5163 53.1579C36.5784 53.1472 36.6383 53.1901 36.6483 53.2531C36.6582 53.316 36.616 53.3751 36.5531 53.3851L36.2599 53.4326C36.0236 53.471 35.8425 53.6736 35.8309 53.9131L35.7419 60.1393C35.7412 60.2022 35.6897 60.2529 35.6268 60.2529L35.6276 60.2521Z" fill="#231F20"/>
<path d="M35.5333 66.8295H35.5318C35.4681 66.8287 35.4175 66.7765 35.4182 66.7128L35.5126 60.1351C35.5134 60.0721 35.5648 60.0215 35.6277 60.0215H35.6293C35.693 60.0223 35.7436 60.0744 35.7428 60.1381L35.6485 66.7159C35.6477 66.7788 35.5963 66.8295 35.5333 66.8295Z" fill="#231F20"/>
<path d="M72.3252 75.9551H52.7845C52.7209 75.9551 52.6694 75.9037 52.6694 75.84C52.6694 75.7763 52.7209 75.7248 52.7845 75.7248H72.21V67.0505L58.3577 48.4338C58.3193 48.3824 58.3301 48.3111 58.3815 48.2727C58.4322 48.2351 58.5043 48.2451 58.5427 48.2965L72.4172 66.9438C72.4318 66.9637 72.4403 66.9875 72.4403 67.0128V75.8407C72.4403 75.9044 72.3888 75.9558 72.3252 75.9558V75.9551Z" fill="#231F20"/>
<path d="M58.4505 48.4795C58.4152 48.4795 58.3807 48.4634 58.3584 48.4335L57.944 47.8771C57.0952 46.7359 55.8543 45.9853 54.4498 45.7628L43.4961 44.2018C43.4332 44.1926 43.3895 44.1343 43.3987 44.0713C43.4079 44.0084 43.4655 43.9647 43.5292 43.9739L54.4851 45.5356C55.951 45.7682 57.2449 46.5502 58.1297 47.7397L58.5441 48.2961C58.5825 48.3475 58.5718 48.4189 58.5204 48.4573C58.4996 48.4726 58.4758 48.4803 58.4521 48.4803L58.4505 48.4795Z" fill="#231F20"/>
<path d="M12.9029 75.9552C12.8415 75.9552 12.7901 75.9061 12.7878 75.8439L12.1707 58.71C12.1047 56.8804 11.5291 55.1107 10.5054 53.5935L7.13708 48.4224C7.10254 48.3695 7.11713 48.2981 7.17085 48.2628C7.2238 48.2283 7.29517 48.2429 7.33047 48.2966L10.6972 53.4661C11.744 55.0178 12.3334 56.829 12.401 58.7016L13.018 75.8355C13.0203 75.8992 12.9704 75.9521 12.9067 75.9544C12.9052 75.9544 12.9036 75.9544 12.9029 75.9544V75.9552Z" fill="#231F20"/>
<path d="M52.7854 75.9539C52.7854 75.9539 52.7823 75.9539 52.7815 75.9539C52.7178 75.9516 52.6679 75.8979 52.6702 75.835L53.2873 58.7011C53.3548 56.8285 53.9442 55.0174 54.9918 53.4641L58.3539 48.3022C58.3884 48.2493 58.4598 48.2339 58.5135 48.2685C58.5665 48.303 58.5818 48.3744 58.5473 48.4281L55.1844 53.5915C54.1598 55.111 53.5835 56.8799 53.5183 58.7095L52.9012 75.8434C52.8989 75.9056 52.8483 75.9547 52.7861 75.9547L52.7854 75.9539Z" fill="#231F20"/>
<path d="M32.9893 49.6821C32.5703 49.6821 32.1651 49.6583 31.7852 49.6123C31.7223 49.6046 31.677 49.5471 31.6847 49.4841C31.6924 49.4212 31.7507 49.3767 31.8128 49.3836C32.1835 49.4289 32.5795 49.4519 32.9893 49.4519C33.7222 49.4519 34.4022 49.3782 35.0092 49.2317C35.0706 49.2171 35.1336 49.2547 35.1481 49.3168C35.1627 49.3782 35.1251 49.4412 35.063 49.4557C34.4383 49.6062 33.7407 49.6821 32.9893 49.6821Z" fill="#231F20"/>
<path d="M31.3237 49.5423C31.3168 49.5423 31.3099 49.5423 31.303 49.5407C30.0574 49.3159 29.0145 48.8232 28.2025 48.0749C28.1557 48.032 28.1526 47.959 28.1956 47.9122C28.2386 47.8654 28.3115 47.8623 28.3583 47.9053C29.1373 48.6236 30.1418 49.0972 31.3437 49.3143C31.4058 49.3259 31.448 49.3857 31.4365 49.4479C31.4265 49.5031 31.3782 49.5423 31.3237 49.5423Z" fill="#231F20"/>
<path d="M27.9456 47.7647C27.9141 47.7647 27.8827 47.7517 27.8604 47.7271C27.3501 47.163 26.951 46.4823 26.6747 45.7049C26.6532 45.645 26.6847 45.579 26.7446 45.5575C26.8044 45.5361 26.8704 45.5675 26.8919 45.6274C27.1582 46.3764 27.5412 47.031 28.0316 47.5721C28.0745 47.6189 28.0707 47.6918 28.0231 47.7348C28.0009 47.7547 27.9732 47.7647 27.9456 47.7647Z" fill="#231F20"/>
<path d="M38.3859 47.0513C38.3667 47.0513 38.3468 47.0467 38.3291 47.036C38.2738 47.0045 38.2547 46.9339 38.2861 46.8794C38.4281 46.63 38.5532 46.3591 38.6576 46.0736C38.6798 46.0137 38.7458 45.983 38.8049 46.0053C38.8648 46.0276 38.8955 46.0936 38.8732 46.1527C38.7642 46.4497 38.6338 46.7321 38.4857 46.993C38.4642 47.0306 38.4258 47.0513 38.3859 47.0513Z" fill="#231F20"/>
<path d="M35.4948 49.3322C35.4457 49.3322 35.4004 49.3008 35.385 49.2517C35.3658 49.191 35.3996 49.1266 35.4602 49.1074C36.5584 48.7597 37.4241 48.1442 38.0335 47.2793C38.0703 47.2271 38.1417 47.2149 38.1939 47.2517C38.246 47.2885 38.2583 47.3599 38.2215 47.4121C37.583 48.3192 36.6774 48.9639 35.5301 49.3276C35.5186 49.3315 35.507 49.333 35.4955 49.333L35.4948 49.3322Z" fill="#231F20"/>
<path d="M36.2563 51.9363C36.2057 51.9363 36.1596 51.9033 36.1458 51.8527C36.1289 51.7913 36.1642 51.7276 36.2256 51.7107C36.8004 51.5495 37.3392 51.3354 37.8288 51.076C37.8848 51.0461 37.9547 51.0676 37.9846 51.1236C38.0145 51.1796 37.993 51.2495 37.937 51.2794C37.4336 51.5465 36.8787 51.7659 36.2886 51.9325C36.2778 51.9356 36.2678 51.9371 36.2571 51.9371L36.2563 51.9363Z" fill="#231F20"/>
<path d="M30.5886 52.1546C30.5824 52.1546 30.5755 52.1546 30.5694 52.153C29.4389 51.9612 28.4275 51.6197 27.5633 51.1377C27.5081 51.107 27.4881 51.0364 27.5188 50.9811C27.5495 50.9259 27.6193 50.9052 27.6754 50.9366C28.5165 51.4055 29.5034 51.7386 30.6078 51.9259C30.6707 51.9366 30.7129 51.9957 30.7022 52.0586C30.6929 52.1146 30.6438 52.1546 30.5886 52.1546Z" fill="#231F20"/>
<path d="M32.9891 52.3453C32.3092 52.3453 31.6561 52.3046 31.0483 52.2256C30.9853 52.2171 30.9408 52.1596 30.9493 52.0966C30.9577 52.0337 31.016 51.9892 31.0782 51.9976C31.6753 52.0759 32.3184 52.1158 32.9884 52.1158C33.9952 52.1158 34.93 52.0184 35.7673 51.8273C35.8302 51.8127 35.8908 51.8518 35.9054 51.914C35.92 51.9762 35.8809 52.0375 35.8187 52.0521C34.9645 52.2478 34.0129 52.3468 32.9884 52.3468L32.9891 52.3453Z" fill="#231F20"/>
<path d="M28.2809 48.1043C28.2533 48.1043 28.2249 48.0943 28.2034 48.0743C28.0868 47.9677 27.9717 47.851 27.8604 47.7274C27.8182 47.6799 27.822 47.6077 27.8688 47.5647C27.9164 47.5225 27.9885 47.5256 28.0315 47.5732C28.1382 47.6914 28.2479 47.8026 28.3592 47.9047C28.406 47.9477 28.4091 48.0206 28.3661 48.0674C28.3431 48.092 28.3124 48.105 28.2809 48.105V48.1043Z" fill="#231F20"/>
<path d="M31.799 49.6116C31.7944 49.6116 31.7898 49.6116 31.7852 49.6108C31.621 49.5908 31.459 49.5663 31.304 49.5387C31.2411 49.5271 31.1996 49.4673 31.2111 49.4051C31.2227 49.3422 31.2825 49.3015 31.3447 49.3123C31.4959 49.3391 31.6532 49.3629 31.8136 49.3829C31.8765 49.3905 31.9218 49.4481 31.9141 49.511C31.9072 49.5694 31.8573 49.6123 31.7998 49.6123L31.799 49.6116Z" fill="#231F20"/>
<path d="M31.0637 52.227C31.0591 52.227 31.0537 52.227 31.0491 52.2262C30.8857 52.2055 30.7237 52.1809 30.5687 52.1541C30.5058 52.1433 30.4643 52.0835 30.4751 52.0213C30.4858 51.9584 30.5457 51.9162 30.6079 51.9277C30.7598 51.9538 30.9179 51.9776 31.0775 51.9983C31.1405 52.0067 31.185 52.0643 31.1773 52.1272C31.1696 52.1855 31.1205 52.2277 31.0629 52.2277L31.0637 52.227Z" fill="#231F20"/>
<path d="M35.036 49.4573C34.9839 49.4573 34.937 49.422 34.924 49.3691C34.9094 49.3069 34.9478 49.2455 35.0092 49.2302C35.1604 49.1941 35.3123 49.1519 35.4597 49.1051C35.5211 49.0859 35.5848 49.1189 35.6047 49.1795C35.6239 49.2401 35.5909 49.3046 35.5303 49.3246C35.3775 49.3737 35.2202 49.4174 35.0629 49.4542C35.0537 49.4566 35.0452 49.4573 35.036 49.4573Z" fill="#231F20"/>
<path d="M35.7936 52.0523C35.7406 52.0523 35.6938 52.0163 35.6815 51.9625C35.6677 51.9004 35.7061 51.839 35.7682 51.8252C35.9225 51.7899 36.0721 51.7523 36.2256 51.7093C36.287 51.6924 36.3507 51.7277 36.3676 51.7891C36.3845 51.8505 36.3492 51.9142 36.2878 51.9311C36.1305 51.9748 35.9778 52.014 35.8197 52.05C35.8112 52.0523 35.8028 52.0531 35.7943 52.0531L35.7936 52.0523Z" fill="#231F20"/>
<path d="M38.1272 47.4588C38.1042 47.4588 38.0812 47.4519 38.0612 47.4381C38.0091 47.4013 37.9968 47.3299 38.0328 47.2777C38.1257 47.145 38.2109 47.0107 38.2853 46.8787C38.3168 46.8234 38.3866 46.8042 38.4419 46.8349C38.4972 46.8664 38.5171 46.9362 38.4856 46.9915C38.4074 47.1296 38.3183 47.2708 38.2209 47.4097C38.1986 47.442 38.1625 47.4588 38.1265 47.4588H38.1272Z" fill="#231F20"/>
<path d="M35.5333 66.8295C35.5003 66.8295 35.4673 66.8157 35.4451 66.788C35.3806 66.7113 35.3177 66.633 35.2547 66.5547C35.0567 66.3099 34.8518 66.0566 34.6185 65.8448C34.4075 65.6537 34.1642 65.4872 33.9278 65.326C33.5771 65.0866 33.2149 64.8395 32.9386 64.4995C32.1481 63.5272 32.3055 61.8871 33.2839 60.9186C34.0783 60.132 34.8802 60.0223 35.6285 60.0215C35.6922 60.0215 35.7436 60.0729 35.7436 60.1366C35.7436 60.2003 35.6922 60.2517 35.6285 60.2517C34.8211 60.2525 34.1404 60.3945 33.4459 61.0821C32.5487 61.9708 32.3983 63.4688 33.1174 64.3537C33.373 64.6676 33.7053 64.8947 34.0575 65.1357C34.3 65.3015 34.5502 65.4726 34.7728 65.6745C35.0191 65.8978 35.2294 66.158 35.4336 66.4097C35.4957 66.4872 35.5586 66.5639 35.6223 66.6399C35.663 66.689 35.6561 66.7612 35.6078 66.8018C35.5863 66.8195 35.5602 66.8287 35.5341 66.8287L35.5333 66.8295Z" fill="#231F20"/>
<path d="M29.9678 60.7185C29.9333 60.7185 29.8987 60.7031 29.8765 60.6732C29.8381 60.6226 29.8473 60.5504 29.898 60.512C30.0584 60.3893 30.1896 60.2688 30.2994 60.1414C30.7138 59.6625 30.9171 59.0132 31.0967 58.44C31.3177 57.7339 31.5426 56.7362 30.9448 56.222C30.6977 56.0095 30.36 55.932 30.0062 55.8652C29.9832 55.8606 29.9601 55.8567 29.9379 55.8529L29.878 55.8422C29.8151 55.8307 29.7744 55.7708 29.7852 55.7079C29.7967 55.6449 29.8573 55.6043 29.9195 55.615L29.9763 55.625C30 55.6288 30.0246 55.6334 30.0484 55.638C30.4191 55.7079 30.8051 55.7969 31.0944 56.0471C31.7951 56.6503 31.5564 57.7408 31.3162 58.5083C31.1297 59.103 30.9187 59.7761 30.4736 60.291C30.3531 60.4299 30.2111 60.5619 30.0377 60.6939C30.0169 60.71 29.9924 60.7177 29.9678 60.7177V60.7185Z" fill="#231F20"/>
<path d="M27.0439 30.3931C26.9771 30.3931 26.9088 30.3855 26.8405 30.3709C26.7783 30.3571 26.7392 30.2957 26.753 30.2335C26.7668 30.1713 26.8275 30.1322 26.8904 30.146C26.9418 30.1575 26.9932 30.1629 27.0439 30.1629C27.4353 30.1629 27.7538 29.8444 27.7538 29.453C27.7538 29.0616 27.4353 28.7431 27.0439 28.7431C26.6525 28.7431 26.334 29.0616 26.334 29.453C26.334 29.5658 26.3601 29.674 26.4123 29.7761C26.4414 29.8329 26.4192 29.902 26.3624 29.9311C26.3056 29.9603 26.2365 29.938 26.2074 29.8813C26.1383 29.747 26.1038 29.6034 26.1038 29.4538C26.1038 28.935 26.5259 28.5137 27.0439 28.5137C27.5619 28.5137 27.984 28.9358 27.984 29.4538C27.984 29.9718 27.5619 30.3939 27.0439 30.3939V30.3931Z" fill="#231F20"/>
<path d="M26.8649 30.3722C26.8564 30.3722 26.8488 30.3715 26.8403 30.3692C26.5656 30.3085 26.3346 30.1297 26.2064 29.8788C26.1773 29.822 26.1995 29.7529 26.2563 29.7238C26.3131 29.6946 26.3822 29.7168 26.4113 29.7736C26.5088 29.9632 26.683 30.0983 26.8902 30.1443C26.9524 30.1581 26.9915 30.2195 26.9777 30.2817C26.9662 30.3354 26.9186 30.3722 26.8657 30.3722H26.8649Z" fill="#231F20"/>
<path d="M19.0071 59.1355C18.9227 59.1355 18.8383 59.1325 18.7531 59.1271C17.7785 59.0603 16.889 58.6175 16.2474 57.8808C15.6058 57.144 15.2897 56.2016 15.3564 55.2277C15.4232 54.2531 15.866 53.3636 16.6028 52.722C17.3395 52.0805 18.2811 51.7643 19.2558 51.831C21.2673 51.9699 22.7914 53.7189 22.6525 55.7304C22.5197 57.6567 20.9096 59.1363 19.0071 59.1363V59.1355ZM18.7692 58.8969C20.6525 59.0266 22.2933 57.5991 22.423 55.7135C22.5527 53.8287 21.1253 52.1894 19.2397 52.0597C18.3264 51.9968 17.4439 52.293 16.7532 52.8947C16.0632 53.4956 15.6481 54.3298 15.5851 55.2431C15.5222 56.1563 15.8184 57.0389 16.4201 57.7296C17.021 58.4195 17.8552 58.8347 18.7685 58.8976L18.7692 58.8969Z" fill="#231F20"/>
</g>
</g>
<defs>
<clipPath id="clip0_1666_22429">
<rect width="66" height="66" rx="33" fill="white"/>
</clipPath>
<clipPath id="clip1_1666_22429">
<rect width="66" height="66" fill="white"/>
</clipPath>
</defs>
</svg>
