<svg width="20" height="20" viewBox="0 0 20 20" fill="none" xmlns="http://www.w3.org/2000/svg">
<path d="M9.9375 18.5625C5.57812 18.5625 0.875 15.8281 0.875 9.82812C0.875 3.82812 5.57812 1.09375 9.9375 1.09375C12.3594 1.09375 14.5938 1.89062 16.25 3.34375C18.0469 4.9375 19 7.1875 19 9.82812C19 12.4688 18.0469 14.7031 16.25 16.2969C14.5938 17.75 12.3438 18.5625 9.9375 18.5625Z" fill="url(#paint0_radial_1_495)"/>
<path d="M17.4203 4.63594C18.2531 5.97969 18.6875 7.57969 18.6875 9.35937C18.6875 12 17.7344 14.2344 15.9375 15.8281C14.2812 17.2812 12.0312 18.0937 9.62499 18.0937C6.80311 18.0937 3.83749 16.9453 2.09686 14.5094C3.77811 17.2687 6.93905 18.5625 9.93749 18.5625C12.3437 18.5625 14.5937 17.75 16.25 16.2969C18.0469 14.7031 19 12.4687 19 9.82812C19 7.8375 18.4578 6.06875 17.4203 4.63594Z" fill="#EB8F00"/>
<path d="M9.79218 12.5656C7.80468 12.5656 5.9578 12.3984 4.41562 12.1141C4.0328 12.0437 3.6953 12.3797 3.77343 12.7609C4.28593 15.2672 6.75312 17.325 9.79062 17.325C13.1141 17.325 15.3516 15.2 15.8156 12.7516C15.8875 12.3734 15.55 12.0437 15.1719 12.1141C13.6281 12.3984 11.7797 12.5656 9.79218 12.5656Z" fill="#422B0D"/>
<path d="M13.9969 8.95469C13.95 8.83906 13.8797 8.73594 13.7906 8.64844C13.7 8.55938 13.5906 8.48281 13.4609 8.41719C13.3578 8.36563 13.2422 8.31719 13.1172 8.27344V6.95938C13.1406 6.96719 13.1656 6.97344 13.1875 6.98438C13.2672 7.02344 13.3344 7.07969 13.3891 7.15C13.4438 7.22031 13.4859 7.30469 13.5141 7.40156C13.525 7.44063 13.5344 7.47969 13.5406 7.52031C13.5594 7.63438 13.6531 7.72188 13.7688 7.72188H13.775C13.925 7.72188 14.0359 7.58906 14.0141 7.44219C13.9813 7.21719 13.9063 7.03125 13.7906 6.88438C13.6313 6.68125 13.4063 6.55938 13.1172 6.51875V6.17344C13.115 6.11481 13.0902 6.0593 13.0479 6.01859C13.0057 5.97788 12.9493 5.95514 12.8906 5.95514C12.832 5.95514 12.7756 5.97788 12.7333 6.01859C12.6911 6.0593 12.6662 6.11481 12.6641 6.17344V6.52969C12.5484 6.54844 12.4406 6.57813 12.3438 6.62344C12.2281 6.67656 12.1313 6.74688 12.05 6.83438C11.9703 6.92188 11.9078 7.025 11.8625 7.14219C11.8188 7.25938 11.7969 7.39063 11.7969 7.5375C11.7969 7.69219 11.8219 7.82813 11.8719 7.94531C11.9219 8.0625 11.9938 8.16719 12.0859 8.25781C12.1781 8.34844 12.2891 8.42656 12.4203 8.49219C12.4953 8.52969 12.5781 8.56563 12.6641 8.59844V9.95313L12.6625 9.95469C12.5525 9.93629 12.4495 9.88882 12.3641 9.81719C12.2953 9.75938 12.2406 9.68281 12.1969 9.5875C12.175 9.53906 12.1594 9.48594 12.1484 9.425C12.1281 9.3125 12.0375 9.225 11.9219 9.225H11.8984C11.7563 9.225 11.6484 9.35313 11.6719 9.49219C11.6859 9.57813 11.7078 9.65625 11.7375 9.72813C11.7953 9.86875 11.8703 9.98438 11.9656 10.0766C12.0609 10.1688 12.1703 10.2391 12.2938 10.2875C12.4109 10.3344 12.5344 10.3625 12.6625 10.3781V10.65C12.6647 10.7086 12.6895 10.7641 12.7318 10.8048C12.774 10.8456 12.8304 10.8683 12.8891 10.8683C12.9477 10.8683 13.0041 10.8456 13.0464 10.8048C13.0886 10.7641 13.1135 10.7086 13.1156 10.65V10.3703C13.2469 10.3531 13.3688 10.3234 13.4781 10.2781C13.6016 10.2266 13.7063 10.1578 13.7938 10.0719C13.8797 9.98594 13.9469 9.88438 13.9953 9.76406C14.0422 9.64531 14.0672 9.50938 14.0672 9.35938C14.0688 9.20625 14.0453 9.07031 13.9969 8.95469ZM12.45 7.94531C12.3906 7.89063 12.3469 7.82813 12.3188 7.76094C12.2906 7.69375 12.2766 7.61719 12.2766 7.52969C12.2781 7.34375 12.3328 7.19688 12.4406 7.0875C12.4984 7.02813 12.575 6.98594 12.6641 6.95938V8.08906C12.5781 8.04531 12.5063 7.99688 12.45 7.94531ZM13.5359 9.62031C13.5016 9.69531 13.4547 9.75938 13.3922 9.8125C13.3297 9.86563 13.2531 9.90625 13.1641 9.93281C13.15 9.9375 13.1344 9.93906 13.1188 9.94219V8.76875C13.2422 8.82656 13.3422 8.88906 13.4141 8.95781C13.5313 9.07031 13.5891 9.20469 13.5859 9.3625C13.5859 9.46094 13.5688 9.54531 13.5359 9.62031Z" fill="#422B0D" stroke="#422B0D" stroke-width="0.15625" stroke-miterlimit="10"/>
<path d="M6.95938 13.7156V17.0203C6.95938 18.5063 8.16407 19.7094 9.64844 19.7094H10.1609C11.6469 19.7094 12.85 18.5047 12.85 17.0203V13.6922C9.87969 14.2734 7.66719 13.8797 6.95938 13.7156Z" fill="#05E005"/>
<path d="M9.79063 13.2859C8.82344 13.2859 7.87188 13.2469 6.95938 13.1703V13.7156C7.66876 13.8797 9.87969 14.2734 12.8516 13.6922V13.1484C11.8688 13.2375 10.8391 13.2859 9.79063 13.2859Z" fill="#05E005"/>
<path opacity="0.3" d="M9.79063 13.2859C8.82344 13.2859 7.87188 13.2469 6.95938 13.1703V13.7156C7.66876 13.8797 9.87969 14.2734 12.8516 13.6922V13.1484C11.8688 13.2375 10.8391 13.2859 9.79063 13.2859Z" fill="#AB3F2E"/>
<path d="M11.0891 16.9172C11.0422 16.8016 10.9719 16.6984 10.8828 16.6109C10.7922 16.5219 10.6828 16.4453 10.5531 16.3797C10.45 16.3281 10.3344 16.2797 10.2094 16.2359V14.9219C10.2328 14.9297 10.2578 14.9359 10.2797 14.9469C10.3594 14.9859 10.4266 15.0422 10.4812 15.1125C10.5359 15.1828 10.5781 15.2672 10.6062 15.3641C10.6172 15.4031 10.6266 15.4422 10.6328 15.4828C10.6516 15.5969 10.7453 15.6844 10.8609 15.6844H10.8672C11.0172 15.6844 11.1281 15.5516 11.1062 15.4047C11.0734 15.1813 10.9984 14.9953 10.8828 14.8469C10.7234 14.6438 10.4984 14.5219 10.2094 14.4813V14.1359C10.2072 14.0773 10.1824 14.0218 10.1401 13.9811C10.0979 13.9404 10.0415 13.9176 9.9828 13.9176C9.92413 13.9176 9.86774 13.9404 9.82549 13.9811C9.78324 14.0218 9.75842 14.0773 9.75624 14.1359V14.4922C9.64061 14.5109 9.5328 14.5406 9.43593 14.5859C9.3203 14.6391 9.22343 14.7094 9.14218 14.7969C9.06249 14.8844 8.99999 14.9875 8.95468 15.1047C8.91093 15.2219 8.88905 15.3531 8.88905 15.5C8.88905 15.6547 8.91405 15.7906 8.96405 15.9078C9.01405 16.025 9.08593 16.1297 9.17811 16.2203C9.2703 16.3109 9.38124 16.3891 9.51249 16.4547C9.58749 16.4922 9.6703 16.5281 9.75624 16.5609V17.9156L9.75468 17.9172C9.64471 17.8988 9.54167 17.8513 9.45624 17.7797C9.38749 17.7219 9.3328 17.6453 9.28905 17.55C9.26718 17.5016 9.25155 17.4484 9.24061 17.3875C9.21874 17.275 9.12811 17.1875 9.01249 17.1875H8.98905C8.84686 17.1875 8.73905 17.3156 8.76249 17.4547C8.77655 17.5406 8.79843 17.6188 8.82811 17.6906C8.88593 17.8313 8.96093 17.9469 9.05624 18.0391C9.15155 18.1313 9.26093 18.2016 9.38436 18.25C9.50155 18.2969 9.62499 18.325 9.75311 18.3406V18.6125C9.75529 18.6711 9.78012 18.7266 9.82237 18.7673C9.86462 18.8081 9.921 18.8308 9.97968 18.8308C10.0383 18.8308 10.0947 18.8081 10.137 18.7673C10.1792 18.7266 10.2041 18.6711 10.2062 18.6125V18.3328C10.3375 18.3156 10.4594 18.2859 10.5687 18.2406C10.6922 18.1891 10.7969 18.1203 10.8844 18.0344C10.9703 17.9484 11.0375 17.8469 11.0859 17.7266C11.1328 17.6078 11.1578 17.4719 11.1578 17.3219C11.1594 17.1688 11.1359 17.0344 11.0891 16.9172ZM9.54061 15.9078C9.48124 15.8531 9.43749 15.7906 9.40936 15.7234C9.38124 15.6563 9.36718 15.5797 9.36718 15.4922C9.36874 15.3063 9.42343 15.1594 9.53124 15.05C9.58905 14.9906 9.66561 14.9484 9.75468 14.9219V16.0516C9.66874 16.0078 9.59686 15.9594 9.54061 15.9078ZM10.6266 17.5844C10.5922 17.6594 10.5453 17.7234 10.4828 17.7766C10.4203 17.8297 10.3437 17.8703 10.2547 17.8969C10.2406 17.9016 10.225 17.9031 10.2094 17.9063V16.7328C10.3328 16.7906 10.4328 16.8531 10.5047 16.9219C10.6219 17.0344 10.6797 17.1688 10.6766 17.3266C10.6766 17.4234 10.6594 17.5078 10.6266 17.5844Z" fill="#404040"/>
<path d="M4.64843 5.12344C4.38749 5.34688 3.99999 5.025 4.24374 4.71875C4.42499 4.49688 4.66874 4.28594 4.93437 4.12656C5.64999 3.66563 6.53124 3.51719 7.2828 3.66563C7.66562 3.74844 7.54843 4.23594 7.19843 4.2375C6.31249 4.225 5.38905 4.52344 4.64843 5.12344ZM15.2375 5.12344C15.4984 5.34688 15.8859 5.025 15.6422 4.71875C15.4609 4.49688 15.2172 4.28594 14.9516 4.12656C14.2359 3.66563 13.3547 3.51719 12.6031 3.66563C12.2203 3.74844 12.3375 4.23594 12.6875 4.2375C13.5734 4.225 14.4984 4.52344 15.2375 5.12344Z" fill="#422B0D"/>
<path d="M7.92031 8.95469C7.87344 8.83906 7.80313 8.73594 7.71406 8.64844C7.62344 8.55938 7.51406 8.48281 7.38438 8.41719C7.28125 8.36563 7.16563 8.31719 7.04063 8.27344V6.95938C7.06406 6.96719 7.08906 6.97344 7.11094 6.98438C7.19063 7.02344 7.25781 7.07969 7.3125 7.15C7.36719 7.22031 7.40938 7.30469 7.4375 7.40156C7.44844 7.44063 7.45781 7.47969 7.46406 7.52031C7.48281 7.63438 7.57656 7.72188 7.69219 7.72188H7.69844C7.84844 7.72188 7.95938 7.58906 7.9375 7.44219C7.90469 7.21875 7.82969 7.03281 7.71406 6.88438C7.55469 6.68125 7.32969 6.55938 7.04063 6.51875V6.17344C7.03845 6.11481 7.01363 6.0593 6.97137 6.01859C6.92912 5.97788 6.87274 5.95514 6.81406 5.95514C6.75539 5.95514 6.699 5.97788 6.65675 6.01859C6.6145 6.0593 6.58968 6.11481 6.5875 6.17344V6.52969C6.47188 6.54844 6.36406 6.57813 6.26719 6.62344C6.15156 6.67656 6.05469 6.74688 5.97344 6.83438C5.89375 6.92188 5.83125 7.025 5.78594 7.14219C5.74219 7.25938 5.72031 7.39063 5.72031 7.5375C5.72031 7.69219 5.74531 7.82813 5.79531 7.94531C5.84531 8.0625 5.91719 8.16719 6.00938 8.25781C6.10156 8.34844 6.2125 8.42656 6.34375 8.49219C6.41875 8.52969 6.50156 8.56563 6.5875 8.59844V9.95313L6.58594 9.95469C6.47598 9.93629 6.37294 9.88882 6.2875 9.81719C6.21875 9.75938 6.16406 9.68281 6.12031 9.5875C6.09844 9.53906 6.08281 9.48594 6.07188 9.425C6.05156 9.3125 5.96094 9.225 5.84531 9.225H5.82188C5.67969 9.225 5.57188 9.35313 5.59531 9.49219C5.60938 9.57813 5.63125 9.65625 5.66094 9.72813C5.71875 9.86875 5.79375 9.98438 5.88906 10.0766C5.98438 10.1688 6.09375 10.2391 6.21719 10.2875C6.33438 10.3344 6.45781 10.3625 6.58594 10.3781V10.65C6.58812 10.7086 6.61294 10.7641 6.65519 10.8048C6.69744 10.8456 6.75383 10.8683 6.8125 10.8683C6.87117 10.8683 6.92756 10.8456 6.96981 10.8048C7.01206 10.7641 7.03689 10.7086 7.03906 10.65V10.3703C7.17031 10.3531 7.29219 10.3234 7.40156 10.2781C7.525 10.2266 7.62969 10.1578 7.71719 10.0719C7.80313 9.98594 7.87031 9.88438 7.91875 9.76406C7.96563 9.64531 7.99063 9.50938 7.99063 9.35938C7.99219 9.20625 7.96875 9.07031 7.92031 8.95469ZM6.37344 7.94531C6.31406 7.89063 6.27031 7.82813 6.24219 7.76094C6.21406 7.69375 6.2 7.61719 6.2 7.52969C6.20156 7.34375 6.25625 7.19688 6.36406 7.0875C6.42188 7.02813 6.49844 6.98594 6.5875 6.95938V8.08906C6.50156 8.04531 6.42969 7.99688 6.37344 7.94531ZM7.45938 9.62031C7.425 9.69531 7.37813 9.75938 7.31563 9.8125C7.25313 9.86563 7.17656 9.90625 7.0875 9.93281C7.07344 9.9375 7.05781 9.93906 7.04219 9.94219V8.76875C7.16563 8.82656 7.26563 8.88906 7.3375 8.95781C7.45469 9.07031 7.5125 9.20469 7.50938 9.3625C7.50938 9.46094 7.49219 9.54531 7.45938 9.62031Z" fill="#422B0D" stroke="#422B0D" stroke-width="0.15625" stroke-miterlimit="10"/>
<defs>
<radialGradient id="paint0_radial_1_495" cx="0" cy="0" r="1" gradientUnits="userSpaceOnUse" gradientTransform="translate(9.9375 9.82812) scale(8.9)">
<stop offset="0.5" stop-color="#FDE030"/>
<stop offset="0.919" stop-color="#F7C02B"/>
<stop offset="1" stop-color="#F4A223"/>
</radialGradient>
</defs>
</svg>
