<svg width="40" height="40" viewBox="0 0 40 40" fill="none" xmlns="http://www.w3.org/2000/svg">
<rect width="40" height="40" rx="20" fill="#292929"/>
<g clip-path="url(#clip0_1_528)">
<path d="M16.7504 29.7488C18.5442 29.7488 20 28.293 20 26.4992V23.2496H16.7504C14.9566 23.2496 13.5008 24.7054 13.5008 26.4992C13.5008 28.293 14.9566 29.7488 16.7504 29.7488Z" fill="#0ACF83"/>
<path d="M13.5008 20C13.5008 18.2062 14.9566 16.7504 16.7504 16.7504H20V23.2496H16.7504C14.9566 23.2496 13.5008 21.7938 13.5008 20Z" fill="#A259FF"/>
<path d="M13.5009 13.5008C13.5009 11.707 14.9568 10.2512 16.7505 10.2512H20.0001V16.7504H16.7505C14.9568 16.7504 13.5009 15.2946 13.5009 13.5008Z" fill="#F24E1E"/>
<path d="M20 10.2512H23.2496C25.0434 10.2512 26.4992 11.707 26.4992 13.5008C26.4992 15.2946 25.0434 16.7504 23.2496 16.7504H20V10.2512Z" fill="#FF7262"/>
<path d="M26.4992 20C26.4992 21.7938 25.0434 23.2496 23.2496 23.2496C21.4558 23.2496 20 21.7938 20 20C20 18.2062 21.4558 16.7504 23.2496 16.7504C25.0434 16.7504 26.4992 18.2062 26.4992 20Z" fill="#1ABCFE"/>
</g>
<defs>
<clipPath id="clip0_1_528">
<rect width="13" height="19.4976" fill="white" transform="translate(13.5 10.2512)"/>
</clipPath>
</defs>
</svg>
